<svg class="main-svg" xmlns="http://www.w3.org/2000/svg" xmlns:xlink="http://www.w3.org/1999/xlink" width="700" height="500" style="" viewBox="0 0 700 500"><rect x="0" y="0" width="700" height="500" style="fill: rgb(255, 255, 255); fill-opacity: 1;"/><defs id="defs-879103"><g class="clips"><clipPath id="clip879103xyplot" class="plotclip"><rect width="541.2926509186352" height="337.6353346456693"/></clipPath><clipPath class="axesclip" id="clip879103x"><rect x="104.77034120734908" y="0" width="541.2926509186352" height="500"/></clipPath><clipPath class="axesclip" id="clip879103y"><rect x="0" y="82.79691601049865" width="700" height="337.6353346456693"/></clipPath><clipPath class="axesclip" id="clip879103xy"><rect x="104.77034120734908" y="82.79691601049865" width="541.2926509186352" height="337.6353346456693"/></clipPath></g><g class="gradients"/><g class="patterns"/></defs><g class="bglayer"/><g class="layer-below"><g class="imagelayer"/><g class="shapelayer"/></g><g class="cartesianlayer"><g class="subplot xy"><g class="layer-subplot"><g class="shapelayer"/><g class="imagelayer"/></g><g class="gridlayer"><g class="x"><path class="xgrid crisp" transform="translate(206.3803412073491,0)" d="M0,82.79691601049865v337.6353346456693" style="stroke: rgb(0, 0, 0); stroke-opacity: 0.1; stroke-width: 0.5px;"/><path class="xgrid crisp" transform="translate(312.03034120734907,0)" d="M0,82.79691601049865v337.6353346456693" style="stroke: rgb(0, 0, 0); stroke-opacity: 0.1; stroke-width: 0.5px;"/><path class="xgrid crisp" transform="translate(417.67034120734905,0)" d="M0,82.79691601049865v337.6353346456693" style="stroke: rgb(0, 0, 0); stroke-opacity: 0.1; stroke-width: 0.5px;"/><path class="xgrid crisp" transform="translate(523.3203412073491,0)" d="M0,82.79691601049865v337.6353346456693" style="stroke: rgb(0, 0, 0); stroke-opacity: 0.1; stroke-width: 0.5px;"/><path class="xgrid crisp" transform="translate(628.9703412073491,0)" d="M0,82.79691601049865v337.6353346456693" style="stroke: rgb(0, 0, 0); stroke-opacity: 0.1; stroke-width: 0.5px;"/></g><g class="y"><path class="ygrid crisp" transform="translate(0,339.8269160104986)" d="M104.77034120734908,0h541.2926509186352" style="stroke: rgb(0, 0, 0); stroke-opacity: 0.1; stroke-width: 0.5px;"/><path class="ygrid crisp" transform="translate(0,259.2169160104986)" d="M104.77034120734908,0h541.2926509186352" style="stroke: rgb(0, 0, 0); stroke-opacity: 0.1; stroke-width: 0.5px;"/><path class="ygrid crisp" transform="translate(0,178.61691601049864)" d="M104.77034120734908,0h541.2926509186352" style="stroke: rgb(0, 0, 0); stroke-opacity: 0.1; stroke-width: 0.5px;"/><path class="ygrid crisp" transform="translate(0,98.00691601049866)" d="M104.77034120734908,0h541.2926509186352" style="stroke: rgb(0, 0, 0); stroke-opacity: 0.1; stroke-width: 0.5px;"/></g></g><g class="zerolinelayer"/><path class="xlines-below"/><path class="ylines-below"/><g class="overlines-below"/><g class="xaxislayer-below"/><g class="yaxislayer-below"/><g class="overaxes-below"/><g class="plot" transform="translate(104.77034120734908,82.79691601049865)" clip-path="url(#clip879103xyplot)"><g class="scatterlayer mlayer"><g class="trace scatter trace28258b" style="stroke-miterlimit: 2;"><g class="fills"><g><path class="js-fill" d="M29.77,337.64L29.77,337.64L29.77,263.68L29.77,337.64L46.68,337.64L46.68,263.68L29.77,263.68L29.77,263.68" style="fill: rgb(0, 154, 250); fill-opacity: 1; stroke-width: 0;"/></g></g><g class="errorbars"/><g class="lines"><path class="js-line" d="M29.77,263.68L29.77,337.64L46.68,337.64L46.68,263.68L29.77,263.68L29.77,263.68" style="vector-effect: non-scaling-stroke; fill: none; stroke: rgb(0, 0, 0); stroke-opacity: 1; stroke-width: 1px; opacity: 1; stroke-dasharray: none;"/></g><g class="points"/><g class="text"/></g><g class="trace scatter tracef7cf2a" style="stroke-miterlimit: 2;"><g class="fills"><g><path class="js-fill" d="M50.9,337.64L50.9,337.64L50.9,179.67L50.9,337.64L67.8,337.64L67.8,179.67L50.9,179.67L50.9,179.67" style="fill: rgb(0, 154, 250); fill-opacity: 1; stroke-width: 0;"/></g></g><g class="errorbars"/><g class="lines"><path class="js-line" d="M50.9,179.67L50.9,337.64L67.8,337.64L67.8,179.67L50.9,179.67L50.9,179.67" style="vector-effect: non-scaling-stroke; fill: none; stroke: rgb(0, 0, 0); stroke-opacity: 1; stroke-width: 1px; opacity: 1; stroke-dasharray: none;"/></g><g class="points"/><g class="text"/></g><g class="trace scatter tracef8c5bc" style="stroke-miterlimit: 2;"><g class="fills"><g><path class="js-fill" d="M72.03,337.64L72.03,337.64L72.03,158.98L72.03,337.64L88.93,337.64L88.93,158.98L72.03,158.98L72.03,158.98" style="fill: rgb(0, 154, 250); fill-opacity: 1; stroke-width: 0;"/></g></g><g class="errorbars"/><g class="lines"><path class="js-line" d="M72.03,158.98L72.03,337.64L88.93,337.64L88.93,158.98L72.03,158.98L72.03,158.98" style="vector-effect: non-scaling-stroke; fill: none; stroke: rgb(0, 0, 0); stroke-opacity: 1; stroke-width: 1px; opacity: 1; stroke-dasharray: none;"/></g><g class="points"/><g class="text"/></g><g class="trace scatter traced9fa06" style="stroke-miterlimit: 2;"><g class="fills"><g><path class="js-fill" d="M93.16,337.64L93.16,337.64L93.16,245.89L93.16,337.64L110.06,337.64L110.06,245.89L93.16,245.89L93.16,245.89" style="fill: rgb(0, 154, 250); fill-opacity: 1; stroke-width: 0;"/></g></g><g class="errorbars"/><g class="lines"><path class="js-line" d="M93.16,245.89L93.16,337.64L110.06,337.64L110.06,245.89L93.16,245.89L93.16,245.89" style="vector-effect: non-scaling-stroke; fill: none; stroke: rgb(0, 0, 0); stroke-opacity: 1; stroke-width: 1px; opacity: 1; stroke-dasharray: none;"/></g><g class="points"/><g class="text"/></g><g class="trace scatter trace621381" style="stroke-miterlimit: 2;"><g class="fills"><g><path class="js-fill" d="M114.29,337.64L114.29,337.64L114.29,275.25L114.29,337.64L131.19,337.64L131.19,275.25L114.29,275.25L114.29,275.25" style="fill: rgb(0, 154, 250); fill-opacity: 1; stroke-width: 0;"/></g></g><g class="errorbars"/><g class="lines"><path class="js-line" d="M114.29,275.25L114.29,337.64L131.19,337.64L131.19,275.25L114.29,275.25L114.29,275.25" style="vector-effect: non-scaling-stroke; fill: none; stroke: rgb(0, 0, 0); stroke-opacity: 1; stroke-width: 1px; opacity: 1; stroke-dasharray: none;"/></g><g class="points"/><g class="text"/></g><g class="trace scatter trace6f6149" style="stroke-miterlimit: 2;"><g class="fills"><g><path class="js-fill" d="M135.42,337.64L135.42,337.64L135.42,251.76L135.42,337.64L152.32,337.64L152.32,251.76L135.42,251.76L135.42,251.76" style="fill: rgb(0, 154, 250); fill-opacity: 1; stroke-width: 0;"/></g></g><g class="errorbars"/><g class="lines"><path class="js-line" d="M135.42,251.76L135.42,337.64L152.32,337.64L152.32,251.76L135.42,251.76L135.42,251.76" style="vector-effect: non-scaling-stroke; fill: none; stroke: rgb(0, 0, 0); stroke-opacity: 1; stroke-width: 1px; opacity: 1; stroke-dasharray: none;"/></g><g class="points"/><g class="text"/></g><g class="trace scatter tracef92806" style="stroke-miterlimit: 2;"><g class="fills"><g><path class="js-fill" d="M156.55,337.64L156.55,337.64L156.55,230.09L156.55,337.64L173.45,337.64L173.45,230.09L156.55,230.09L156.55,230.09" style="fill: rgb(0, 154, 250); fill-opacity: 1; stroke-width: 0;"/></g></g><g class="errorbars"/><g class="lines"><path class="js-line" d="M156.55,230.09L156.55,337.64L173.45,337.64L173.45,230.09L156.55,230.09L156.55,230.09" style="vector-effect: non-scaling-stroke; fill: none; stroke: rgb(0, 0, 0); stroke-opacity: 1; stroke-width: 1px; opacity: 1; stroke-dasharray: none;"/></g><g class="points"/><g class="text"/></g><g class="trace scatter trace57b3f4" style="stroke-miterlimit: 2;"><g class="fills"><g><path class="js-fill" d="M177.68,337.64L177.68,337.64L177.68,244.64L177.68,337.64L194.58,337.64L194.58,244.64L177.68,244.64L177.68,244.64" style="fill: rgb(0, 154, 250); fill-opacity: 1; stroke-width: 0;"/></g></g><g class="errorbars"/><g class="lines"><path class="js-line" d="M177.68,244.64L177.68,337.64L194.58,337.64L194.58,244.64L177.68,244.64L177.68,244.64" style="vector-effect: non-scaling-stroke; fill: none; stroke: rgb(0, 0, 0); stroke-opacity: 1; stroke-width: 1px; opacity: 1; stroke-dasharray: none;"/></g><g class="points"/><g class="text"/></g><g class="trace scatter traceb4f15d" style="stroke-miterlimit: 2;"><g class="fills"><g><path class="js-fill" d="M198.81,337.64L198.81,337.64L198.81,263.58L198.81,337.64L215.71,337.64L215.71,263.58L198.81,263.58L198.81,263.58" style="fill: rgb(0, 154, 250); fill-opacity: 1; stroke-width: 0;"/></g></g><g class="errorbars"/><g class="lines"><path class="js-line" d="M198.81,263.58L198.81,337.64L215.71,337.64L215.71,263.58L198.81,263.58L198.81,263.58" style="vector-effect: non-scaling-stroke; fill: none; stroke: rgb(0, 0, 0); stroke-opacity: 1; stroke-width: 1px; opacity: 1; stroke-dasharray: none;"/></g><g class="points"/><g class="text"/></g><g class="trace scatter trace87efea" style="stroke-miterlimit: 2;"><g class="fills"><g><path class="js-fill" d="M219.94,337.64L219.94,337.64L219.94,259.01L219.94,337.64L236.84,337.64L236.84,259.01L219.94,259.01L219.94,259.01" style="fill: rgb(0, 154, 250); fill-opacity: 1; stroke-width: 0;"/></g></g><g class="errorbars"/><g class="lines"><path class="js-line" d="M219.94,259.01L219.94,337.64L236.84,337.64L236.84,259.01L219.94,259.01L219.94,259.01" style="vector-effect: non-scaling-stroke; fill: none; stroke: rgb(0, 0, 0); stroke-opacity: 1; stroke-width: 1px; opacity: 1; stroke-dasharray: none;"/></g><g class="points"/><g class="text"/></g><g class="trace scatter trace73036d" style="stroke-miterlimit: 2;"><g class="fills"><g><path class="js-fill" d="M241.07,337.64L241.07,337.64L241.07,253.7L241.07,337.64L257.97,337.64L257.97,253.7L241.07,253.7L241.07,253.7" style="fill: rgb(0, 154, 250); fill-opacity: 1; stroke-width: 0;"/></g></g><g class="errorbars"/><g class="lines"><path class="js-line" d="M241.07,253.7L241.07,337.64L257.97,337.64L257.97,253.7L241.07,253.7L241.07,253.7" style="vector-effect: non-scaling-stroke; fill: none; stroke: rgb(0, 0, 0); stroke-opacity: 1; stroke-width: 1px; opacity: 1; stroke-dasharray: none;"/></g><g class="points"/><g class="text"/></g><g class="trace scatter traceeb04a5" style="stroke-miterlimit: 2;"><g class="fills"><g><path class="js-fill" d="M262.19,337.64L262.19,337.64L262.19,231.29L262.19,337.64L279.1,337.64L279.1,231.29L262.19,231.29L262.19,231.29" style="fill: rgb(0, 154, 250); fill-opacity: 1; stroke-width: 0;"/></g></g><g class="errorbars"/><g class="lines"><path class="js-line" d="M262.19,231.29L262.19,337.64L279.1,337.64L279.1,231.29L262.19,231.29L262.19,231.29" style="vector-effect: non-scaling-stroke; fill: none; stroke: rgb(0, 0, 0); stroke-opacity: 1; stroke-width: 1px; opacity: 1; stroke-dasharray: none;"/></g><g class="points"/><g class="text"/></g><g class="trace scatter trace893713" style="stroke-miterlimit: 2;"><g class="fills"><g><path class="js-fill" d="M283.32,337.64L283.32,337.64L283.32,227.9L283.32,337.64L300.23,337.64L300.23,227.9L283.32,227.9L283.32,227.9" style="fill: rgb(0, 154, 250); fill-opacity: 1; stroke-width: 0;"/></g></g><g class="errorbars"/><g class="lines"><path class="js-line" d="M283.32,227.9L283.32,337.64L300.23,337.64L300.23,227.9L283.32,227.9L283.32,227.9" style="vector-effect: non-scaling-stroke; fill: none; stroke: rgb(0, 0, 0); stroke-opacity: 1; stroke-width: 1px; opacity: 1; stroke-dasharray: none;"/></g><g class="points"/><g class="text"/></g><g class="trace scatter trace465022" style="stroke-miterlimit: 2;"><g class="fills"><g><path class="js-fill" d="M304.45,337.64L304.45,337.64L304.45,219.21L304.45,337.64L321.36,337.64L321.36,219.21L304.45,219.21L304.45,219.21" style="fill: rgb(0, 154, 250); fill-opacity: 1; stroke-width: 0;"/></g></g><g class="errorbars"/><g class="lines"><path class="js-line" d="M304.45,219.21L304.45,337.64L321.36,337.64L321.36,219.21L304.45,219.21L304.45,219.21" style="vector-effect: non-scaling-stroke; fill: none; stroke: rgb(0, 0, 0); stroke-opacity: 1; stroke-width: 1px; opacity: 1; stroke-dasharray: none;"/></g><g class="points"/><g class="text"/></g><g class="trace scatter trace71eea4" style="stroke-miterlimit: 2;"><g class="fills"><g><path class="js-fill" d="M325.58,337.64L325.58,337.64L325.58,208.28L325.58,337.64L342.49,337.64L342.49,208.28L325.58,208.28L325.58,208.28" style="fill: rgb(0, 154, 250); fill-opacity: 1; stroke-width: 0;"/></g></g><g class="errorbars"/><g class="lines"><path class="js-line" d="M325.58,208.28L325.58,337.64L342.49,337.64L342.49,208.28L325.58,208.28L325.58,208.28" style="vector-effect: non-scaling-stroke; fill: none; stroke: rgb(0, 0, 0); stroke-opacity: 1; stroke-width: 1px; opacity: 1; stroke-dasharray: none;"/></g><g class="points"/><g class="text"/></g><g class="trace scatter trace7a0529" style="stroke-miterlimit: 2;"><g class="fills"><g><path class="js-fill" d="M346.71,337.64L346.71,337.64L346.71,178.88L346.71,337.64L363.62,337.64L363.62,178.88L346.71,178.88L346.71,178.88" style="fill: rgb(0, 154, 250); fill-opacity: 1; stroke-width: 0;"/></g></g><g class="errorbars"/><g class="lines"><path class="js-line" d="M346.71,178.88L346.71,337.64L363.62,337.64L363.62,178.88L346.71,178.88L346.71,178.88" style="vector-effect: non-scaling-stroke; fill: none; stroke: rgb(0, 0, 0); stroke-opacity: 1; stroke-width: 1px; opacity: 1; stroke-dasharray: none;"/></g><g class="points"/><g class="text"/></g><g class="trace scatter trace3fa758" style="stroke-miterlimit: 2;"><g class="fills"><g><path class="js-fill" d="M367.84,337.64L367.84,337.64L367.84,160.96L367.84,337.64L384.74,337.64L384.74,160.96L367.84,160.96L367.84,160.96" style="fill: rgb(0, 154, 250); fill-opacity: 1; stroke-width: 0;"/></g></g><g class="errorbars"/><g class="lines"><path class="js-line" d="M367.84,160.96L367.84,337.64L384.74,337.64L384.74,160.96L367.84,160.96L367.84,160.96" style="vector-effect: non-scaling-stroke; fill: none; stroke: rgb(0, 0, 0); stroke-opacity: 1; stroke-width: 1px; opacity: 1; stroke-dasharray: none;"/></g><g class="points"/><g class="text"/></g><g class="trace scatter trace7e18cf" style="stroke-miterlimit: 2;"><g class="fills"><g><path class="js-fill" d="M388.97,337.64L388.97,337.64L388.97,51.49L388.97,337.64L405.87,337.64L405.87,51.49L388.97,51.49L388.97,51.49" style="fill: rgb(0, 154, 250); fill-opacity: 1; stroke-width: 0;"/></g></g><g class="errorbars"/><g class="lines"><path class="js-line" d="M388.97,51.49L388.97,337.64L405.87,337.64L405.87,51.49L388.97,51.49L388.97,51.49" style="vector-effect: non-scaling-stroke; fill: none; stroke: rgb(0, 0, 0); stroke-opacity: 1; stroke-width: 1px; opacity: 1; stroke-dasharray: none;"/></g><g class="points"/><g class="text"/></g><g class="trace scatter trace67f58f" style="stroke-miterlimit: 2;"><g class="fills"><g><path class="js-fill" d="M410.1,337.64L410.1,337.64L410.1,49.02L410.1,337.64L427,337.64L427,49.02L410.1,49.02L410.1,49.02" style="fill: rgb(0, 154, 250); fill-opacity: 1; stroke-width: 0;"/></g></g><g class="errorbars"/><g class="lines"><path class="js-line" d="M410.1,49.02L410.1,337.64L427,337.64L427,49.02L410.1,49.02L410.1,49.02" style="vector-effect: non-scaling-stroke; fill: none; stroke: rgb(0, 0, 0); stroke-opacity: 1; stroke-width: 1px; opacity: 1; stroke-dasharray: none;"/></g><g class="points"/><g class="text"/></g><g class="trace scatter tracec1268e" style="stroke-miterlimit: 2;"><g class="fills"><g><path class="js-fill" d="M431.23,337.64L431.23,337.64L431.23,83.51L431.23,337.64L448.13,337.64L448.13,83.51L431.23,83.51L431.23,83.51" style="fill: rgb(0, 154, 250); fill-opacity: 1; stroke-width: 0;"/></g></g><g class="errorbars"/><g class="lines"><path class="js-line" d="M431.23,83.51L431.23,337.64L448.13,337.64L448.13,83.51L431.23,83.51L431.23,83.51" style="vector-effect: non-scaling-stroke; fill: none; stroke: rgb(0, 0, 0); stroke-opacity: 1; stroke-width: 1px; opacity: 1; stroke-dasharray: none;"/></g><g class="points"/><g class="text"/></g><g class="trace scatter trace1a6754" style="stroke-miterlimit: 2;"><g class="fills"><g><path class="js-fill" d="M452.36,337.64L452.36,337.64L452.36,42.09L452.36,337.64L469.26,337.64L469.26,42.09L452.36,42.09L452.36,42.09" style="fill: rgb(0, 154, 250); fill-opacity: 1; stroke-width: 0;"/></g></g><g class="errorbars"/><g class="lines"><path class="js-line" d="M452.36,42.09L452.36,337.64L469.26,337.64L469.26,42.09L452.36,42.09L452.36,42.09" style="vector-effect: non-scaling-stroke; fill: none; stroke: rgb(0, 0, 0); stroke-opacity: 1; stroke-width: 1px; opacity: 1; stroke-dasharray: none;"/></g><g class="points"/><g class="text"/></g><g class="trace scatter tracec823b9" style="stroke-miterlimit: 2;"><g class="fills"><g><path class="js-fill" d="M473.49,337.64L473.49,337.64L473.49,8.63L473.49,337.64L490.39,337.64L490.39,8.63L473.49,8.63L473.49,8.63" style="fill: rgb(0, 154, 250); fill-opacity: 1; stroke-width: 0;"/></g></g><g class="errorbars"/><g class="lines"><path class="js-line" d="M473.49,8.63L473.49,337.64L490.39,337.64L490.39,8.63L473.49,8.63L473.49,8.63" style="vector-effect: non-scaling-stroke; fill: none; stroke: rgb(0, 0, 0); stroke-opacity: 1; stroke-width: 1px; opacity: 1; stroke-dasharray: none;"/></g><g class="points"/><g class="text"/></g><g class="trace scatter trace1d48f2" style="stroke-miterlimit: 2;"><g class="fills"><g><path class="js-fill" d="M494.62,337.64L494.62,337.64L494.62,0L494.62,337.64L511.52,337.64L511.52,0L494.62,0L494.62,0" style="fill: rgb(0, 154, 250); fill-opacity: 1; stroke-width: 0;"/></g></g><g class="errorbars"/><g class="lines"><path class="js-line" d="M494.62,0L494.62,337.64L511.52,337.64L511.52,0L494.62,0L494.62,0" style="vector-effect: non-scaling-stroke; fill: none; stroke: rgb(0, 0, 0); stroke-opacity: 1; stroke-width: 1px; opacity: 1; stroke-dasharray: none;"/></g><g class="points"/><g class="text"/></g><g class="trace scatter trace14cb0b" style="stroke-miterlimit: 2; opacity: 1;"><g class="fills"/><g class="errorbars"/><g class="lines"/><g class="points"><path class="point" transform="translate(38.22,263.68)" d="M3,3H-3V-3H3Z" style="opacity: 1; stroke-width: 1px; fill: rgb(255, 0, 0); fill-opacity: 0; stroke: rgb(0, 0, 0); stroke-opacity: 0;"/><path class="point" transform="translate(59.35,179.67)" d="M3,3H-3V-3H3Z" style="opacity: 1; stroke-width: 1px; fill: rgb(255, 0, 0); fill-opacity: 0; stroke: rgb(0, 0, 0); stroke-opacity: 0;"/><path class="point" transform="translate(80.48,158.98)" d="M3,3H-3V-3H3Z" style="opacity: 1; stroke-width: 1px; fill: rgb(255, 0, 0); fill-opacity: 0; stroke: rgb(0, 0, 0); stroke-opacity: 0;"/><path class="point" transform="translate(101.61,245.89)" d="M3,3H-3V-3H3Z" style="opacity: 1; stroke-width: 1px; fill: rgb(255, 0, 0); fill-opacity: 0; stroke: rgb(0, 0, 0); stroke-opacity: 0;"/><path class="point" transform="translate(122.74,275.25)" d="M3,3H-3V-3H3Z" style="opacity: 1; stroke-width: 1px; fill: rgb(255, 0, 0); fill-opacity: 0; stroke: rgb(0, 0, 0); stroke-opacity: 0;"/><path class="point" transform="translate(143.87,251.76)" d="M3,3H-3V-3H3Z" style="opacity: 1; stroke-width: 1px; fill: rgb(255, 0, 0); fill-opacity: 0; stroke: rgb(0, 0, 0); stroke-opacity: 0;"/><path class="point" transform="translate(165,230.09)" d="M3,3H-3V-3H3Z" style="opacity: 1; stroke-width: 1px; fill: rgb(255, 0, 0); fill-opacity: 0; stroke: rgb(0, 0, 0); stroke-opacity: 0;"/><path class="point" transform="translate(186.13,244.64)" d="M3,3H-3V-3H3Z" style="opacity: 1; stroke-width: 1px; fill: rgb(255, 0, 0); fill-opacity: 0; stroke: rgb(0, 0, 0); stroke-opacity: 0;"/><path class="point" transform="translate(207.26,263.58)" d="M3,3H-3V-3H3Z" style="opacity: 1; stroke-width: 1px; fill: rgb(255, 0, 0); fill-opacity: 0; stroke: rgb(0, 0, 0); stroke-opacity: 0;"/><path class="point" transform="translate(228.39,259.01)" d="M3,3H-3V-3H3Z" style="opacity: 1; stroke-width: 1px; fill: rgb(255, 0, 0); fill-opacity: 0; stroke: rgb(0, 0, 0); stroke-opacity: 0;"/><path class="point" transform="translate(249.52,253.7)" d="M3,3H-3V-3H3Z" style="opacity: 1; stroke-width: 1px; fill: rgb(255, 0, 0); fill-opacity: 0; stroke: rgb(0, 0, 0); stroke-opacity: 0;"/><path class="point" transform="translate(270.65,231.29)" d="M3,3H-3V-3H3Z" style="opacity: 1; stroke-width: 1px; fill: rgb(255, 0, 0); fill-opacity: 0; stroke: rgb(0, 0, 0); stroke-opacity: 0;"/><path class="point" transform="translate(291.78,227.9)" d="M3,3H-3V-3H3Z" style="opacity: 1; stroke-width: 1px; fill: rgb(255, 0, 0); fill-opacity: 0; stroke: rgb(0, 0, 0); stroke-opacity: 0;"/><path class="point" transform="translate(312.9,219.21)" d="M3,3H-3V-3H3Z" style="opacity: 1; stroke-width: 1px; fill: rgb(255, 0, 0); fill-opacity: 0; stroke: rgb(0, 0, 0); stroke-opacity: 0;"/><path class="point" transform="translate(334.03,208.28)" d="M3,3H-3V-3H3Z" style="opacity: 1; stroke-width: 1px; fill: rgb(255, 0, 0); fill-opacity: 0; stroke: rgb(0, 0, 0); stroke-opacity: 0;"/><path class="point" transform="translate(355.16,178.88)" d="M3,3H-3V-3H3Z" style="opacity: 1; stroke-width: 1px; fill: rgb(255, 0, 0); fill-opacity: 0; stroke: rgb(0, 0, 0); stroke-opacity: 0;"/><path class="point" transform="translate(376.29,160.96)" d="M3,3H-3V-3H3Z" style="opacity: 1; stroke-width: 1px; fill: rgb(255, 0, 0); fill-opacity: 0; stroke: rgb(0, 0, 0); stroke-opacity: 0;"/><path class="point" transform="translate(397.42,51.49)" d="M3,3H-3V-3H3Z" style="opacity: 1; stroke-width: 1px; fill: rgb(255, 0, 0); fill-opacity: 0; stroke: rgb(0, 0, 0); stroke-opacity: 0;"/><path class="point" transform="translate(418.55,49.02)" d="M3,3H-3V-3H3Z" style="opacity: 1; stroke-width: 1px; fill: rgb(255, 0, 0); fill-opacity: 0; stroke: rgb(0, 0, 0); stroke-opacity: 0;"/><path class="point" transform="translate(439.68,83.51)" d="M3,3H-3V-3H3Z" style="opacity: 1; stroke-width: 1px; fill: rgb(255, 0, 0); fill-opacity: 0; stroke: rgb(0, 0, 0); stroke-opacity: 0;"/><path class="point" transform="translate(460.81,42.09)" d="M3,3H-3V-3H3Z" style="opacity: 1; stroke-width: 1px; fill: rgb(255, 0, 0); fill-opacity: 0; stroke: rgb(0, 0, 0); stroke-opacity: 0;"/><path class="point" transform="translate(481.94,8.63)" d="M3,3H-3V-3H3Z" style="opacity: 1; stroke-width: 1px; fill: rgb(255, 0, 0); fill-opacity: 0; stroke: rgb(0, 0, 0); stroke-opacity: 0;"/><path class="point" transform="translate(503.07,0)" d="M3,3H-3V-3H3Z" style="opacity: 1; stroke-width: 1px; fill: rgb(255, 0, 0); fill-opacity: 0; stroke: rgb(0, 0, 0); stroke-opacity: 0;"/></g><g class="text"/></g></g></g><g class="overplot"/><path class="xlines-above crisp" d="M103.77034120734908,420.9322506561679H646.0629921259842" style="fill: none; stroke-width: 1px; stroke: rgb(0, 0, 0); stroke-opacity: 1;"/><path class="ylines-above crisp" d="M104.27034120734908,82.79691601049865V420.4322506561679" style="fill: none; stroke-width: 1px; stroke: rgb(0, 0, 0); stroke-opacity: 1;"/><g class="overlines-above"/><g class="xaxislayer-above"><path class="xtick ticks crisp" d="M0,420.4322506561679v-5" transform="translate(206.3803412073491,0)" style="stroke: rgb(0, 0, 0); stroke-opacity: 1; stroke-width: 1px;"/><path class="xtick ticks crisp" d="M0,420.4322506561679v-5" transform="translate(312.03034120734907,0)" style="stroke: rgb(0, 0, 0); stroke-opacity: 1; stroke-width: 1px;"/><path class="xtick ticks crisp" d="M0,420.4322506561679v-5" transform="translate(417.67034120734905,0)" style="stroke: rgb(0, 0, 0); stroke-opacity: 1; stroke-width: 1px;"/><path class="xtick ticks crisp" d="M0,420.4322506561679v-5" transform="translate(523.3203412073491,0)" style="stroke: rgb(0, 0, 0); stroke-opacity: 1; stroke-width: 1px;"/><path class="xtick ticks crisp" d="M0,420.4322506561679v-5" transform="translate(628.9703412073491,0)" style="stroke: rgb(0, 0, 0); stroke-opacity: 1; stroke-width: 1px;"/><g class="xtick"><text text-anchor="middle" x="0" y="434.6322506561679" transform="translate(206.3803412073491,0)" style="font-family: sans-serif; font-size: 11px; fill: rgb(0, 0, 0); fill-opacity: 1; white-space: pre; opacity: 1;">5</text></g><g class="xtick"><text text-anchor="middle" x="0" y="434.6322506561679" style="font-family: sans-serif; font-size: 11px; fill: rgb(0, 0, 0); fill-opacity: 1; white-space: pre; opacity: 1;" transform="translate(312.03034120734907,0)">10</text></g><g class="xtick"><text text-anchor="middle" x="0" y="434.6322506561679" style="font-family: sans-serif; font-size: 11px; fill: rgb(0, 0, 0); fill-opacity: 1; white-space: pre; opacity: 1;" transform="translate(417.67034120734905,0)">15</text></g><g class="xtick"><text text-anchor="middle" x="0" y="434.6322506561679" style="font-family: sans-serif; font-size: 11px; fill: rgb(0, 0, 0); fill-opacity: 1; white-space: pre; opacity: 1;" transform="translate(523.3203412073491,0)">20</text></g><g class="xtick"><text text-anchor="middle" x="0" y="434.6322506561679" style="font-family: sans-serif; font-size: 11px; fill: rgb(0, 0, 0); fill-opacity: 1; white-space: pre; opacity: 1;" transform="translate(628.9703412073491,0)">25</text></g></g><g class="yaxislayer-above"><path class="ytick ticks crisp" d="M104.77034120734908,0h5" transform="translate(0,339.8269160104986)" style="stroke: rgb(0, 0, 0); stroke-opacity: 1; stroke-width: 1px;"/><path class="ytick ticks crisp" d="M104.77034120734908,0h5" transform="translate(0,259.2169160104986)" style="stroke: rgb(0, 0, 0); stroke-opacity: 1; stroke-width: 1px;"/><path class="ytick ticks crisp" d="M104.77034120734908,0h5" transform="translate(0,178.61691601049864)" style="stroke: rgb(0, 0, 0); stroke-opacity: 1; stroke-width: 1px;"/><path class="ytick ticks crisp" d="M104.77034120734908,0h5" transform="translate(0,98.00691601049866)" style="stroke: rgb(0, 0, 0); stroke-opacity: 1; stroke-width: 1px;"/><g class="ytick"><text text-anchor="end" x="101.57034120734907" y="3.8499999999999996" transform="translate(0,420.43691601049863)" style="font-family: sans-serif; font-size: 11px; fill: rgb(0, 0, 0); fill-opacity: 1; white-space: pre; opacity: 1;">0.00</text></g><g class="ytick"><text text-anchor="end" x="101.57034120734907" y="3.8499999999999996" style="font-family: sans-serif; font-size: 11px; fill: rgb(0, 0, 0); fill-opacity: 1; white-space: pre; opacity: 1;" transform="translate(0,339.8269160104986)">0.25</text></g><g class="ytick"><text text-anchor="end" x="101.57034120734907" y="3.8499999999999996" style="font-family: sans-serif; font-size: 11px; fill: rgb(0, 0, 0); fill-opacity: 1; white-space: pre; opacity: 1;" transform="translate(0,259.2169160104986)">0.50</text></g><g class="ytick"><text text-anchor="end" x="101.57034120734907" y="3.8499999999999996" style="font-family: sans-serif; font-size: 11px; fill: rgb(0, 0, 0); fill-opacity: 1; white-space: pre; opacity: 1;" transform="translate(0,178.61691601049864)">0.75</text></g><g class="ytick"><text text-anchor="end" x="101.57034120734907" y="3.8499999999999996" style="font-family: sans-serif; font-size: 11px; fill: rgb(0, 0, 0); fill-opacity: 1; white-space: pre; opacity: 1;" transform="translate(0,98.00691601049866)">1.00</text></g></g><g class="overaxes-above"/></g></g><g class="polarlayer"/><g class="ternarylayer"/><g class="geolayer"/><g class="funnelarealayer"/><g class="pielayer"/><g class="iciclelayer"/><g class="treemaplayer"/><g class="sunburstlayer"/><g class="glimages"/><defs id="topdefs-879103"><g class="clips"/></defs><g class="layer-above"><g class="imagelayer"/><g class="shapelayer"/></g><g class="infolayer"><g class="g-gtitle"/><g class="g-xtitle"><text class="xtitle" x="375.4166666666667" y="462.140625" text-anchor="middle" style="font-family: sans-serif; font-size: 15px; fill: rgb(0, 0, 0); opacity: 1; font-weight: normal; white-space: pre;">log2(n)</text></g><g class="g-ytitle"><text class="ytitle" transform="rotate(-90,54.65625,251.6145833333333)" x="54.65625" y="251.6145833333333" text-anchor="middle" style="font-family: sans-serif; font-size: 15px; fill: rgb(0, 0, 0); opacity: 1; font-weight: normal; white-space: pre;">Relative Time (FFTW / CatabraFFT)</text></g><g class="annotation" data-index="0" style="opacity: 1;"><g class="annotation-text-g" transform="rotate(0,375.41666666666663,73.00000000000003)"><g class="cursor-pointer" transform="translate(-16,60)"><rect class="bg" x="0.5" y="0.5" width="781" height="25" style="stroke-width: 1px; stroke: rgb(0, 0, 0); stroke-opacity: 0; fill: rgb(0, 0, 0); fill-opacity: 0;"/><text class="annotation-text" text-anchor="middle" x="390.84375" y="20" style="font-family: sans-serif; font-size: 20px; fill: rgb(0, 0, 0); fill-opacity: 1; white-space: pre;">ComplexF32 FFT-2 Speedup (13th Gen Intel(R) Core(TM) i7-1355U@1110 Julia 1.11.2)</text></g></g></g></g></svg>