<svg class="main-svg" xmlns="http://www.w3.org/2000/svg" xmlns:xlink="http://www.w3.org/1999/xlink" width="700" height="500" style="" viewBox="0 0 700 500"><rect x="0" y="0" width="700" height="500" style="fill: rgb(255, 255, 255); fill-opacity: 1;"/><defs id="defs-8bbe9f"><g class="clips"><clipPath id="clip8bbe9fxyplot" class="plotclip"><rect width="550.181539807524" height="337.6353346456693"/></clipPath><clipPath class="axesclip" id="clip8bbe9fx"><rect x="95.88145231846019" y="0" width="550.181539807524" height="500"/></clipPath><clipPath class="axesclip" id="clip8bbe9fy"><rect x="0" y="82.79691601049865" width="700" height="337.6353346456693"/></clipPath><clipPath class="axesclip" id="clip8bbe9fxy"><rect x="95.88145231846019" y="82.79691601049865" width="550.181539807524" height="337.6353346456693"/></clipPath></g><g class="gradients"/><g class="patterns"/></defs><g class="bglayer"/><g class="layer-below"><g class="imagelayer"/><g class="shapelayer"/></g><g class="cartesianlayer"><g class="subplot xy"><g class="layer-subplot"><g class="shapelayer"/><g class="imagelayer"/></g><g class="gridlayer"><g class="x"><path class="xgrid crisp" transform="translate(139.18145231846017,0)" d="M0,82.79691601049865v337.6353346456693" style="stroke: rgb(0, 0, 0); stroke-opacity: 0.1; stroke-width: 0.5px;"/><path class="xgrid crisp" transform="translate(267.4314523184602,0)" d="M0,82.79691601049865v337.6353346456693" style="stroke: rgb(0, 0, 0); stroke-opacity: 0.1; stroke-width: 0.5px;"/><path class="xgrid crisp" transform="translate(395.6814523184602,0)" d="M0,82.79691601049865v337.6353346456693" style="stroke: rgb(0, 0, 0); stroke-opacity: 0.1; stroke-width: 0.5px;"/><path class="xgrid crisp" transform="translate(523.9314523184602,0)" d="M0,82.79691601049865v337.6353346456693" style="stroke: rgb(0, 0, 0); stroke-opacity: 0.1; stroke-width: 0.5px;"/></g><g class="y"><path class="ygrid crisp" transform="translate(0,317.3269160104986)" d="M95.88145231846019,0h550.181539807524" style="stroke: rgb(0, 0, 0); stroke-opacity: 0.1; stroke-width: 0.5px;"/><path class="ygrid crisp" transform="translate(0,214.22691601049866)" d="M95.88145231846019,0h550.181539807524" style="stroke: rgb(0, 0, 0); stroke-opacity: 0.1; stroke-width: 0.5px;"/><path class="ygrid crisp" transform="translate(0,111.12691601049865)" d="M95.88145231846019,0h550.181539807524" style="stroke: rgb(0, 0, 0); stroke-opacity: 0.1; stroke-width: 0.5px;"/></g></g><g class="zerolinelayer"/><path class="xlines-below"/><path class="ylines-below"/><g class="overlines-below"/><g class="xaxislayer-below"/><g class="yaxislayer-below"/><g class="overaxes-below"/><g class="plot" transform="translate(95.88145231846019,82.79691601049865)" clip-path="url(#clip8bbe9fxyplot)"><g class="scatterlayer mlayer"><g class="trace scatter trace9d7c3b" style="stroke-miterlimit: 2;"><g class="fills"><g><path class="js-fill" d="M30.26,337.64L30.26,337.64L30.26,221.3L30.26,337.64L87.87,337.64L87.87,221.3L30.26,221.3L30.26,221.3" style="fill: rgb(0, 154, 250); fill-opacity: 1; stroke-width: 0;"/></g></g><g class="errorbars"/><g class="lines"><path class="js-line" d="M30.26,221.3L30.26,337.64L87.87,337.64L87.87,221.3L30.26,221.3L30.26,221.3" style="vector-effect: non-scaling-stroke; fill: none; stroke: rgb(0, 0, 0); stroke-opacity: 1; stroke-width: 1px; opacity: 1; stroke-dasharray: none;"/></g><g class="points"/><g class="text"/></g><g class="trace scatter trace935ea2" style="stroke-miterlimit: 2;"><g class="fills"><g><path class="js-fill" d="M102.27,337.64L102.27,337.64L102.27,152.11L102.27,337.64L159.88,337.64L159.88,152.11L102.27,152.11L102.27,152.11" style="fill: rgb(0, 154, 250); fill-opacity: 1; stroke-width: 0;"/></g></g><g class="errorbars"/><g class="lines"><path class="js-line" d="M102.27,152.11L102.27,337.64L159.88,337.64L159.88,152.11L102.27,152.11L102.27,152.11" style="vector-effect: non-scaling-stroke; fill: none; stroke: rgb(0, 0, 0); stroke-opacity: 1; stroke-width: 1px; opacity: 1; stroke-dasharray: none;"/></g><g class="points"/><g class="text"/></g><g class="trace scatter trace936b8a" style="stroke-miterlimit: 2;"><g class="fills"><g><path class="js-fill" d="M174.28,337.64L174.28,337.64L174.28,240.72L174.28,337.64L231.89,337.64L231.89,240.72L174.28,240.72L174.28,240.72" style="fill: rgb(0, 154, 250); fill-opacity: 1; stroke-width: 0;"/></g></g><g class="errorbars"/><g class="lines"><path class="js-line" d="M174.28,240.72L174.28,337.64L231.89,337.64L231.89,240.72L174.28,240.72L174.28,240.72" style="vector-effect: non-scaling-stroke; fill: none; stroke: rgb(0, 0, 0); stroke-opacity: 1; stroke-width: 1px; opacity: 1; stroke-dasharray: none;"/></g><g class="points"/><g class="text"/></g><g class="trace scatter tracecc76b0" style="stroke-miterlimit: 2;"><g class="fills"><g><path class="js-fill" d="M246.29,337.64L246.29,337.64L246.29,201L246.29,337.64L303.89,337.64L303.89,201L246.29,201L246.29,201" style="fill: rgb(0, 154, 250); fill-opacity: 1; stroke-width: 0;"/></g></g><g class="errorbars"/><g class="lines"><path class="js-line" d="M246.29,201L246.29,337.64L303.89,337.64L303.89,201L246.29,201L246.29,201" style="vector-effect: non-scaling-stroke; fill: none; stroke: rgb(0, 0, 0); stroke-opacity: 1; stroke-width: 1px; opacity: 1; stroke-dasharray: none;"/></g><g class="points"/><g class="text"/></g><g class="trace scatter trace1a9333" style="stroke-miterlimit: 2;"><g class="fills"><g><path class="js-fill" d="M318.3,337.64L318.3,337.64L318.3,174.28L318.3,337.64L375.9,337.64L375.9,174.28L318.3,174.28L318.3,174.28" style="fill: rgb(0, 154, 250); fill-opacity: 1; stroke-width: 0;"/></g></g><g class="errorbars"/><g class="lines"><path class="js-line" d="M318.3,174.28L318.3,337.64L375.9,337.64L375.9,174.28L318.3,174.28L318.3,174.28" style="vector-effect: non-scaling-stroke; fill: none; stroke: rgb(0, 0, 0); stroke-opacity: 1; stroke-width: 1px; opacity: 1; stroke-dasharray: none;"/></g><g class="points"/><g class="text"/></g><g class="trace scatter trace3939ce" style="stroke-miterlimit: 2;"><g class="fills"><g><path class="js-fill" d="M390.3,337.64L390.3,337.64L390.3,73.9L390.3,337.64L447.91,337.64L447.91,73.9L390.3,73.9L390.3,73.9" style="fill: rgb(0, 154, 250); fill-opacity: 1; stroke-width: 0;"/></g></g><g class="errorbars"/><g class="lines"><path class="js-line" d="M390.3,73.9L390.3,337.64L447.91,337.64L447.91,73.9L390.3,73.9L390.3,73.9" style="vector-effect: non-scaling-stroke; fill: none; stroke: rgb(0, 0, 0); stroke-opacity: 1; stroke-width: 1px; opacity: 1; stroke-dasharray: none;"/></g><g class="points"/><g class="text"/></g><g class="trace scatter traced928d0" style="stroke-miterlimit: 2;"><g class="fills"><g><path class="js-fill" d="M462.31,337.64L462.31,337.64L462.31,0L462.31,337.64L519.92,337.64L519.92,0L462.31,0L462.31,0" style="fill: rgb(0, 154, 250); fill-opacity: 1; stroke-width: 0;"/></g></g><g class="errorbars"/><g class="lines"><path class="js-line" d="M462.31,0L462.31,337.64L519.92,337.64L519.92,0L462.31,0L462.31,0" style="vector-effect: non-scaling-stroke; fill: none; stroke: rgb(0, 0, 0); stroke-opacity: 1; stroke-width: 1px; opacity: 1; stroke-dasharray: none;"/></g><g class="points"/><g class="text"/></g><g class="trace scatter trace40541c" style="stroke-miterlimit: 2; opacity: 1;"><g class="fills"/><g class="errorbars"/><g class="lines"/><g class="points"><path class="point" transform="translate(59.06,221.3)" d="M3,3H-3V-3H3Z" style="opacity: 1; stroke-width: 1px; fill: rgb(255, 0, 0); fill-opacity: 0; stroke: rgb(0, 0, 0); stroke-opacity: 0;"/><path class="point" transform="translate(131.07,152.11)" d="M3,3H-3V-3H3Z" style="opacity: 1; stroke-width: 1px; fill: rgb(255, 0, 0); fill-opacity: 0; stroke: rgb(0, 0, 0); stroke-opacity: 0;"/><path class="point" transform="translate(203.08,240.72)" d="M3,3H-3V-3H3Z" style="opacity: 1; stroke-width: 1px; fill: rgb(255, 0, 0); fill-opacity: 0; stroke: rgb(0, 0, 0); stroke-opacity: 0;"/><path class="point" transform="translate(275.09,201)" d="M3,3H-3V-3H3Z" style="opacity: 1; stroke-width: 1px; fill: rgb(255, 0, 0); fill-opacity: 0; stroke: rgb(0, 0, 0); stroke-opacity: 0;"/><path class="point" transform="translate(347.1,174.28)" d="M3,3H-3V-3H3Z" style="opacity: 1; stroke-width: 1px; fill: rgb(255, 0, 0); fill-opacity: 0; stroke: rgb(0, 0, 0); stroke-opacity: 0;"/><path class="point" transform="translate(419.11,73.9)" d="M3,3H-3V-3H3Z" style="opacity: 1; stroke-width: 1px; fill: rgb(255, 0, 0); fill-opacity: 0; stroke: rgb(0, 0, 0); stroke-opacity: 0;"/><path class="point" transform="translate(491.12,0)" d="M3,3H-3V-3H3Z" style="opacity: 1; stroke-width: 1px; fill: rgb(255, 0, 0); fill-opacity: 0; stroke: rgb(0, 0, 0); stroke-opacity: 0;"/></g><g class="text"/></g></g></g><g class="overplot"/><path class="xlines-above crisp" d="M94.88145231846019,420.9322506561679H646.0629921259842" style="fill: none; stroke-width: 1px; stroke: rgb(0, 0, 0); stroke-opacity: 1;"/><path class="ylines-above crisp" d="M95.38145231846019,82.79691601049865V420.4322506561679" style="fill: none; stroke-width: 1px; stroke: rgb(0, 0, 0); stroke-opacity: 1;"/><g class="overlines-above"/><g class="xaxislayer-above"><path class="xtick ticks crisp" d="M0,420.4322506561679v-5" transform="translate(139.18145231846017,0)" style="stroke: rgb(0, 0, 0); stroke-opacity: 1; stroke-width: 1px;"/><path class="xtick ticks crisp" d="M0,420.4322506561679v-5" transform="translate(267.4314523184602,0)" style="stroke: rgb(0, 0, 0); stroke-opacity: 1; stroke-width: 1px;"/><path class="xtick ticks crisp" d="M0,420.4322506561679v-5" transform="translate(395.6814523184602,0)" style="stroke: rgb(0, 0, 0); stroke-opacity: 1; stroke-width: 1px;"/><path class="xtick ticks crisp" d="M0,420.4322506561679v-5" transform="translate(523.9314523184602,0)" style="stroke: rgb(0, 0, 0); stroke-opacity: 1; stroke-width: 1px;"/><g class="xtick"><text text-anchor="middle" x="0" y="434.6322506561679" transform="translate(139.18145231846017,0)" style="font-family: sans-serif; font-size: 11px; fill: rgb(0, 0, 0); fill-opacity: 1; white-space: pre; opacity: 1;">5</text></g><g class="xtick"><text text-anchor="middle" x="0" y="434.6322506561679" style="font-family: sans-serif; font-size: 11px; fill: rgb(0, 0, 0); fill-opacity: 1; white-space: pre; opacity: 1;" transform="translate(267.4314523184602,0)">10</text></g><g class="xtick"><text text-anchor="middle" x="0" y="434.6322506561679" style="font-family: sans-serif; font-size: 11px; fill: rgb(0, 0, 0); fill-opacity: 1; white-space: pre; opacity: 1;" transform="translate(395.6814523184602,0)">15</text></g><g class="xtick"><text text-anchor="middle" x="0" y="434.6322506561679" style="font-family: sans-serif; font-size: 11px; fill: rgb(0, 0, 0); fill-opacity: 1; white-space: pre; opacity: 1;" transform="translate(523.9314523184602,0)">20</text></g></g><g class="yaxislayer-above"><path class="ytick ticks crisp" d="M95.88145231846019,0h5" transform="translate(0,317.3269160104986)" style="stroke: rgb(0, 0, 0); stroke-opacity: 1; stroke-width: 1px;"/><path class="ytick ticks crisp" d="M95.88145231846019,0h5" transform="translate(0,214.22691601049866)" style="stroke: rgb(0, 0, 0); stroke-opacity: 1; stroke-width: 1px;"/><path class="ytick ticks crisp" d="M95.88145231846019,0h5" transform="translate(0,111.12691601049865)" style="stroke: rgb(0, 0, 0); stroke-opacity: 1; stroke-width: 1px;"/><g class="ytick"><text text-anchor="end" x="92.68145231846019" y="3.8499999999999996" transform="translate(0,420.43691601049863)" style="font-family: sans-serif; font-size: 11px; fill: rgb(0, 0, 0); fill-opacity: 1; white-space: pre; opacity: 1;">0.0</text></g><g class="ytick"><text text-anchor="end" x="92.68145231846019" y="3.8499999999999996" style="font-family: sans-serif; font-size: 11px; fill: rgb(0, 0, 0); fill-opacity: 1; white-space: pre; opacity: 1;" transform="translate(0,317.3269160104986)">0.5</text></g><g class="ytick"><text text-anchor="end" x="92.68145231846019" y="3.8499999999999996" style="font-family: sans-serif; font-size: 11px; fill: rgb(0, 0, 0); fill-opacity: 1; white-space: pre; opacity: 1;" transform="translate(0,214.22691601049866)">1.0</text></g><g class="ytick"><text text-anchor="end" x="92.68145231846019" y="3.8499999999999996" style="font-family: sans-serif; font-size: 11px; fill: rgb(0, 0, 0); fill-opacity: 1; white-space: pre; opacity: 1;" transform="translate(0,111.12691601049865)">1.5</text></g></g><g class="overaxes-above"/></g></g><g class="polarlayer"/><g class="ternarylayer"/><g class="geolayer"/><g class="funnelarealayer"/><g class="pielayer"/><g class="iciclelayer"/><g class="treemaplayer"/><g class="sunburstlayer"/><g class="glimages"/><defs id="topdefs-8bbe9f"><g class="clips"/></defs><g class="layer-above"><g class="imagelayer"/><g class="shapelayer"/></g><g class="infolayer"><g class="g-gtitle"/><g class="g-xtitle"><text class="xtitle" x="370.9722222222222" y="462.140625" text-anchor="middle" style="font-family: sans-serif; font-size: 15px; fill: rgb(0, 0, 0); opacity: 1; font-weight: normal; white-space: pre;">log2(n)</text></g><g class="g-ytitle"><text class="ytitle" transform="rotate(-90,51.875,251.6145833333333)" x="51.875" y="251.6145833333333" text-anchor="middle" style="font-family: sans-serif; font-size: 15px; fill: rgb(0, 0, 0); opacity: 1; font-weight: normal; white-space: pre;">Relative Time (FFTW / CatabraFFT)</text></g><g class="annotation" data-index="0" style="opacity: 1;"><g class="annotation-text-g" transform="rotate(0,370.9722222222223,73.00000000000003)"><g class="cursor-pointer" transform="translate(-22,60)"><rect class="bg" x="0.5" y="0.5" width="784" height="25" style="stroke-width: 1px; stroke: rgb(0, 0, 0); stroke-opacity: 0; fill: rgb(0, 0, 0); fill-opacity: 0;"/><text class="annotation-text" text-anchor="middle" x="392.328125" y="20" style="font-family: sans-serif; font-size: 20px; fill: rgb(0, 0, 0); fill-opacity: 1; white-space: pre;">ComplexF32 FFT-7 Speedup (13th Gen Intel(R) Core(TM) i7-1355U@1050 Julia 1.11.2)</text></g></g></g></g></svg>