<svg class="main-svg" xmlns="http://www.w3.org/2000/svg" xmlns:xlink="http://www.w3.org/1999/xlink" width="700" height="500" style="" viewBox="0 0 700 500"><rect x="0" y="0" width="700" height="500" style="fill: rgb(255, 255, 255); fill-opacity: 1;"/><defs id="defs-e72fd0"><g class="clips"><clipPath id="clipe72fd0xyplot" class="plotclip"><rect width="550.181539807524" height="337.6353346456693"/></clipPath><clipPath class="axesclip" id="clipe72fd0x"><rect x="95.88145231846019" y="0" width="550.181539807524" height="500"/></clipPath><clipPath class="axesclip" id="clipe72fd0y"><rect x="0" y="82.79691601049865" width="700" height="337.6353346456693"/></clipPath><clipPath class="axesclip" id="clipe72fd0xy"><rect x="95.88145231846019" y="82.79691601049865" width="550.181539807524" height="337.6353346456693"/></clipPath></g><g class="gradients"/><g class="patterns"/></defs><g class="bglayer"/><g class="layer-below"><g class="imagelayer"/><g class="shapelayer"/></g><g class="cartesianlayer"><g class="subplot xy"><g class="layer-subplot"><g class="shapelayer"/><g class="imagelayer"/></g><g class="gridlayer"><g class="x"><path class="xgrid crisp" transform="translate(199.1614523184602,0)" d="M0,82.79691601049865v337.6353346456693" style="stroke: rgb(0, 0, 0); stroke-opacity: 0.1; stroke-width: 0.5px;"/><path class="xgrid crisp" transform="translate(306.5414523184602,0)" d="M0,82.79691601049865v337.6353346456693" style="stroke: rgb(0, 0, 0); stroke-opacity: 0.1; stroke-width: 0.5px;"/><path class="xgrid crisp" transform="translate(413.9214523184602,0)" d="M0,82.79691601049865v337.6353346456693" style="stroke: rgb(0, 0, 0); stroke-opacity: 0.1; stroke-width: 0.5px;"/><path class="xgrid crisp" transform="translate(521.3014523184602,0)" d="M0,82.79691601049865v337.6353346456693" style="stroke: rgb(0, 0, 0); stroke-opacity: 0.1; stroke-width: 0.5px;"/><path class="xgrid crisp" transform="translate(628.6914523184602,0)" d="M0,82.79691601049865v337.6353346456693" style="stroke: rgb(0, 0, 0); stroke-opacity: 0.1; stroke-width: 0.5px;"/></g><g class="y"><path class="ygrid crisp" transform="translate(0,350.46691601049866)" d="M95.88145231846019,0h550.181539807524" style="stroke: rgb(0, 0, 0); stroke-opacity: 0.1; stroke-width: 0.5px;"/><path class="ygrid crisp" transform="translate(0,280.5069160104987)" d="M95.88145231846019,0h550.181539807524" style="stroke: rgb(0, 0, 0); stroke-opacity: 0.1; stroke-width: 0.5px;"/><path class="ygrid crisp" transform="translate(0,210.53691601049866)" d="M95.88145231846019,0h550.181539807524" style="stroke: rgb(0, 0, 0); stroke-opacity: 0.1; stroke-width: 0.5px;"/><path class="ygrid crisp" transform="translate(0,140.57691601049865)" d="M95.88145231846019,0h550.181539807524" style="stroke: rgb(0, 0, 0); stroke-opacity: 0.1; stroke-width: 0.5px;"/></g></g><g class="zerolinelayer"/><path class="xlines-below"/><path class="ylines-below"/><g class="overlines-below"/><g class="xaxislayer-below"/><g class="yaxislayer-below"/><g class="overaxes-below"/><g class="plot" transform="translate(95.88145231846019,82.79691601049865)" clip-path="url(#clipe72fd0xyplot)"><g class="scatterlayer mlayer"><g class="trace scatter trace6bce4b" style="stroke-miterlimit: 2;"><g class="fills"><g><path class="js-fill" d="M30.26,337.64L30.26,337.64L30.26,254.98L30.26,337.64L47.44,337.64L47.44,254.98L30.26,254.98L30.26,254.98" style="fill: rgb(0, 154, 250); fill-opacity: 1; stroke-width: 0;"/></g></g><g class="errorbars"/><g class="lines"><path class="js-line" d="M30.26,254.98L30.26,337.64L47.44,337.64L47.44,254.98L30.26,254.98L30.26,254.98" style="vector-effect: non-scaling-stroke; fill: none; stroke: rgb(0, 0, 0); stroke-opacity: 1; stroke-width: 1px; opacity: 1; stroke-dasharray: none;"/></g><g class="points"/><g class="text"/></g><g class="trace scatter trace6a3c3d" style="stroke-miterlimit: 2;"><g class="fills"><g><path class="js-fill" d="M51.74,337.64L51.74,337.64L51.74,171.11L51.74,337.64L68.92,337.64L68.92,171.11L51.74,171.11L51.74,171.11" style="fill: rgb(0, 154, 250); fill-opacity: 1; stroke-width: 0;"/></g></g><g class="errorbars"/><g class="lines"><path class="js-line" d="M51.74,171.11L51.74,337.64L68.92,337.64L68.92,171.11L51.74,171.11L51.74,171.11" style="vector-effect: non-scaling-stroke; fill: none; stroke: rgb(0, 0, 0); stroke-opacity: 1; stroke-width: 1px; opacity: 1; stroke-dasharray: none;"/></g><g class="points"/><g class="text"/></g><g class="trace scatter trace6f858b" style="stroke-miterlimit: 2;"><g class="fills"><g><path class="js-fill" d="M73.21,337.64L73.21,337.64L73.21,139.94L73.21,337.64L90.39,337.64L90.39,139.94L73.21,139.94L73.21,139.94" style="fill: rgb(0, 154, 250); fill-opacity: 1; stroke-width: 0;"/></g></g><g class="errorbars"/><g class="lines"><path class="js-line" d="M73.21,139.94L73.21,337.64L90.39,337.64L90.39,139.94L73.21,139.94L73.21,139.94" style="vector-effect: non-scaling-stroke; fill: none; stroke: rgb(0, 0, 0); stroke-opacity: 1; stroke-width: 1px; opacity: 1; stroke-dasharray: none;"/></g><g class="points"/><g class="text"/></g><g class="trace scatter trace8084d5" style="stroke-miterlimit: 2;"><g class="fills"><g><path class="js-fill" d="M94.69,337.64L94.69,337.64L94.69,232.47L94.69,337.64L111.87,337.64L111.87,232.47L94.69,232.47L94.69,232.47" style="fill: rgb(0, 154, 250); fill-opacity: 1; stroke-width: 0;"/></g></g><g class="errorbars"/><g class="lines"><path class="js-line" d="M94.69,232.47L94.69,337.64L111.87,337.64L111.87,232.47L94.69,232.47L94.69,232.47" style="vector-effect: non-scaling-stroke; fill: none; stroke: rgb(0, 0, 0); stroke-opacity: 1; stroke-width: 1px; opacity: 1; stroke-dasharray: none;"/></g><g class="points"/><g class="text"/></g><g class="trace scatter traceeafa6d" style="stroke-miterlimit: 2;"><g class="fills"><g><path class="js-fill" d="M116.17,337.64L116.17,337.64L116.17,266.05L116.17,337.64L133.35,337.64L133.35,266.05L116.17,266.05L116.17,266.05" style="fill: rgb(0, 154, 250); fill-opacity: 1; stroke-width: 0;"/></g></g><g class="errorbars"/><g class="lines"><path class="js-line" d="M116.17,266.05L116.17,337.64L133.35,337.64L133.35,266.05L116.17,266.05L116.17,266.05" style="vector-effect: non-scaling-stroke; fill: none; stroke: rgb(0, 0, 0); stroke-opacity: 1; stroke-width: 1px; opacity: 1; stroke-dasharray: none;"/></g><g class="points"/><g class="text"/></g><g class="trace scatter trace1d688d" style="stroke-miterlimit: 2;"><g class="fills"><g><path class="js-fill" d="M137.64,337.64L137.64,337.64L137.64,256.94L137.64,337.64L154.82,337.64L154.82,256.94L137.64,256.94L137.64,256.94" style="fill: rgb(0, 154, 250); fill-opacity: 1; stroke-width: 0;"/></g></g><g class="errorbars"/><g class="lines"><path class="js-line" d="M137.64,256.94L137.64,337.64L154.82,337.64L154.82,256.94L137.64,256.94L137.64,256.94" style="vector-effect: non-scaling-stroke; fill: none; stroke: rgb(0, 0, 0); stroke-opacity: 1; stroke-width: 1px; opacity: 1; stroke-dasharray: none;"/></g><g class="points"/><g class="text"/></g><g class="trace scatter trace85f958" style="stroke-miterlimit: 2;"><g class="fills"><g><path class="js-fill" d="M159.12,337.64L159.12,337.64L159.12,241.31L159.12,337.64L176.3,337.64L176.3,241.31L159.12,241.31L159.12,241.31" style="fill: rgb(0, 154, 250); fill-opacity: 1; stroke-width: 0;"/></g></g><g class="errorbars"/><g class="lines"><path class="js-line" d="M159.12,241.31L159.12,337.64L176.3,337.64L176.3,241.31L159.12,241.31L159.12,241.31" style="vector-effect: non-scaling-stroke; fill: none; stroke: rgb(0, 0, 0); stroke-opacity: 1; stroke-width: 1px; opacity: 1; stroke-dasharray: none;"/></g><g class="points"/><g class="text"/></g><g class="trace scatter tracea8ed9a" style="stroke-miterlimit: 2;"><g class="fills"><g><path class="js-fill" d="M180.6,337.64L180.6,337.64L180.6,235.98L180.6,337.64L197.78,337.64L197.78,235.98L180.6,235.98L180.6,235.98" style="fill: rgb(0, 154, 250); fill-opacity: 1; stroke-width: 0;"/></g></g><g class="errorbars"/><g class="lines"><path class="js-line" d="M180.6,235.98L180.6,337.64L197.78,337.64L197.78,235.98L180.6,235.98L180.6,235.98" style="vector-effect: non-scaling-stroke; fill: none; stroke: rgb(0, 0, 0); stroke-opacity: 1; stroke-width: 1px; opacity: 1; stroke-dasharray: none;"/></g><g class="points"/><g class="text"/></g><g class="trace scatter trace7e8853" style="stroke-miterlimit: 2;"><g class="fills"><g><path class="js-fill" d="M202.07,337.64L202.07,337.64L202.07,246.38L202.07,337.64L219.25,337.64L219.25,246.38L202.07,246.38L202.07,246.38" style="fill: rgb(0, 154, 250); fill-opacity: 1; stroke-width: 0;"/></g></g><g class="errorbars"/><g class="lines"><path class="js-line" d="M202.07,246.38L202.07,337.64L219.25,337.64L219.25,246.38L202.07,246.38L202.07,246.38" style="vector-effect: non-scaling-stroke; fill: none; stroke: rgb(0, 0, 0); stroke-opacity: 1; stroke-width: 1px; opacity: 1; stroke-dasharray: none;"/></g><g class="points"/><g class="text"/></g><g class="trace scatter tracec3f93f" style="stroke-miterlimit: 2;"><g class="fills"><g><path class="js-fill" d="M223.55,337.64L223.55,337.64L223.55,248.24L223.55,337.64L240.73,337.64L240.73,248.24L223.55,248.24L223.55,248.24" style="fill: rgb(0, 154, 250); fill-opacity: 1; stroke-width: 0;"/></g></g><g class="errorbars"/><g class="lines"><path class="js-line" d="M223.55,248.24L223.55,337.64L240.73,337.64L240.73,248.24L223.55,248.24L223.55,248.24" style="vector-effect: non-scaling-stroke; fill: none; stroke: rgb(0, 0, 0); stroke-opacity: 1; stroke-width: 1px; opacity: 1; stroke-dasharray: none;"/></g><g class="points"/><g class="text"/></g><g class="trace scatter trace7b40b6" style="stroke-miterlimit: 2;"><g class="fills"><g><path class="js-fill" d="M245.02,337.64L245.02,337.64L245.02,246.78L245.02,337.64L262.2,337.64L262.2,246.78L245.02,246.78L245.02,246.78" style="fill: rgb(0, 154, 250); fill-opacity: 1; stroke-width: 0;"/></g></g><g class="errorbars"/><g class="lines"><path class="js-line" d="M245.02,246.78L245.02,337.64L262.2,337.64L262.2,246.78L245.02,246.78L245.02,246.78" style="vector-effect: non-scaling-stroke; fill: none; stroke: rgb(0, 0, 0); stroke-opacity: 1; stroke-width: 1px; opacity: 1; stroke-dasharray: none;"/></g><g class="points"/><g class="text"/></g><g class="trace scatter traced99cb2" style="stroke-miterlimit: 2;"><g class="fills"><g><path class="js-fill" d="M266.5,337.64L266.5,337.64L266.5,215.02L266.5,337.64L283.68,337.64L283.68,215.02L266.5,215.02L266.5,215.02" style="fill: rgb(0, 154, 250); fill-opacity: 1; stroke-width: 0;"/></g></g><g class="errorbars"/><g class="lines"><path class="js-line" d="M266.5,215.02L266.5,337.64L283.68,337.64L283.68,215.02L266.5,215.02L266.5,215.02" style="vector-effect: non-scaling-stroke; fill: none; stroke: rgb(0, 0, 0); stroke-opacity: 1; stroke-width: 1px; opacity: 1; stroke-dasharray: none;"/></g><g class="points"/><g class="text"/></g><g class="trace scatter trace1eec08" style="stroke-miterlimit: 2;"><g class="fills"><g><path class="js-fill" d="M287.98,337.64L287.98,337.64L287.98,215.62L287.98,337.64L305.16,337.64L305.16,215.62L287.98,215.62L287.98,215.62" style="fill: rgb(0, 154, 250); fill-opacity: 1; stroke-width: 0;"/></g></g><g class="errorbars"/><g class="lines"><path class="js-line" d="M287.98,215.62L287.98,337.64L305.16,337.64L305.16,215.62L287.98,215.62L287.98,215.62" style="vector-effect: non-scaling-stroke; fill: none; stroke: rgb(0, 0, 0); stroke-opacity: 1; stroke-width: 1px; opacity: 1; stroke-dasharray: none;"/></g><g class="points"/><g class="text"/></g><g class="trace scatter trace11625c" style="stroke-miterlimit: 2;"><g class="fills"><g><path class="js-fill" d="M309.45,337.64L309.45,337.64L309.45,214.7L309.45,337.64L326.63,337.64L326.63,214.7L309.45,214.7L309.45,214.7" style="fill: rgb(0, 154, 250); fill-opacity: 1; stroke-width: 0;"/></g></g><g class="errorbars"/><g class="lines"><path class="js-line" d="M309.45,214.7L309.45,337.64L326.63,337.64L326.63,214.7L309.45,214.7L309.45,214.7" style="vector-effect: non-scaling-stroke; fill: none; stroke: rgb(0, 0, 0); stroke-opacity: 1; stroke-width: 1px; opacity: 1; stroke-dasharray: none;"/></g><g class="points"/><g class="text"/></g><g class="trace scatter trace720fb0" style="stroke-miterlimit: 2;"><g class="fills"><g><path class="js-fill" d="M330.93,337.64L330.93,337.64L330.93,190.64L330.93,337.64L348.11,337.64L348.11,190.64L330.93,190.64L330.93,190.64" style="fill: rgb(0, 154, 250); fill-opacity: 1; stroke-width: 0;"/></g></g><g class="errorbars"/><g class="lines"><path class="js-line" d="M330.93,190.64L330.93,337.64L348.11,337.64L348.11,190.64L330.93,190.64L330.93,190.64" style="vector-effect: non-scaling-stroke; fill: none; stroke: rgb(0, 0, 0); stroke-opacity: 1; stroke-width: 1px; opacity: 1; stroke-dasharray: none;"/></g><g class="points"/><g class="text"/></g><g class="trace scatter tracee2556c" style="stroke-miterlimit: 2;"><g class="fills"><g><path class="js-fill" d="M352.41,337.64L352.41,337.64L352.41,179.85L352.41,337.64L369.59,337.64L369.59,179.85L352.41,179.85L352.41,179.85" style="fill: rgb(0, 154, 250); fill-opacity: 1; stroke-width: 0;"/></g></g><g class="errorbars"/><g class="lines"><path class="js-line" d="M352.41,179.85L352.41,337.64L369.59,337.64L369.59,179.85L352.41,179.85L352.41,179.85" style="vector-effect: non-scaling-stroke; fill: none; stroke: rgb(0, 0, 0); stroke-opacity: 1; stroke-width: 1px; opacity: 1; stroke-dasharray: none;"/></g><g class="points"/><g class="text"/></g><g class="trace scatter trace7ff77c" style="stroke-miterlimit: 2;"><g class="fills"><g><path class="js-fill" d="M373.88,337.64L373.88,337.64L373.88,161.47L373.88,337.64L391.06,337.64L391.06,161.47L373.88,161.47L373.88,161.47" style="fill: rgb(0, 154, 250); fill-opacity: 1; stroke-width: 0;"/></g></g><g class="errorbars"/><g class="lines"><path class="js-line" d="M373.88,161.47L373.88,337.64L391.06,337.64L391.06,161.47L373.88,161.47L373.88,161.47" style="vector-effect: non-scaling-stroke; fill: none; stroke: rgb(0, 0, 0); stroke-opacity: 1; stroke-width: 1px; opacity: 1; stroke-dasharray: none;"/></g><g class="points"/><g class="text"/></g><g class="trace scatter tracef283ed" style="stroke-miterlimit: 2;"><g class="fills"><g><path class="js-fill" d="M395.36,337.64L395.36,337.64L395.36,22.91L395.36,337.64L412.54,337.64L412.54,22.91L395.36,22.91L395.36,22.91" style="fill: rgb(0, 154, 250); fill-opacity: 1; stroke-width: 0;"/></g></g><g class="errorbars"/><g class="lines"><path class="js-line" d="M395.36,22.91L395.36,337.64L412.54,337.64L412.54,22.91L395.36,22.91L395.36,22.91" style="vector-effect: non-scaling-stroke; fill: none; stroke: rgb(0, 0, 0); stroke-opacity: 1; stroke-width: 1px; opacity: 1; stroke-dasharray: none;"/></g><g class="points"/><g class="text"/></g><g class="trace scatter tracef7d1cb" style="stroke-miterlimit: 2;"><g class="fills"><g><path class="js-fill" d="M416.83,337.64L416.83,337.64L416.83,47.99L416.83,337.64L434.02,337.64L434.02,47.99L416.83,47.99L416.83,47.99" style="fill: rgb(0, 154, 250); fill-opacity: 1; stroke-width: 0;"/></g></g><g class="errorbars"/><g class="lines"><path class="js-line" d="M416.83,47.99L416.83,337.64L434.02,337.64L434.02,47.99L416.83,47.99L416.83,47.99" style="vector-effect: non-scaling-stroke; fill: none; stroke: rgb(0, 0, 0); stroke-opacity: 1; stroke-width: 1px; opacity: 1; stroke-dasharray: none;"/></g><g class="points"/><g class="text"/></g><g class="trace scatter tracee4e690" style="stroke-miterlimit: 2;"><g class="fills"><g><path class="js-fill" d="M438.31,337.64L438.31,337.64L438.31,43.82L438.31,337.64L455.49,337.64L455.49,43.82L438.31,43.82L438.31,43.82" style="fill: rgb(0, 154, 250); fill-opacity: 1; stroke-width: 0;"/></g></g><g class="errorbars"/><g class="lines"><path class="js-line" d="M438.31,43.82L438.31,337.64L455.49,337.64L455.49,43.82L438.31,43.82L438.31,43.82" style="vector-effect: non-scaling-stroke; fill: none; stroke: rgb(0, 0, 0); stroke-opacity: 1; stroke-width: 1px; opacity: 1; stroke-dasharray: none;"/></g><g class="points"/><g class="text"/></g><g class="trace scatter tracec01d73" style="stroke-miterlimit: 2;"><g class="fills"><g><path class="js-fill" d="M459.79,337.64L459.79,337.64L459.79,50.13L459.79,337.64L476.97,337.64L476.97,50.13L459.79,50.13L459.79,50.13" style="fill: rgb(0, 154, 250); fill-opacity: 1; stroke-width: 0;"/></g></g><g class="errorbars"/><g class="lines"><path class="js-line" d="M459.79,50.13L459.79,337.64L476.97,337.64L476.97,50.13L459.79,50.13L459.79,50.13" style="vector-effect: non-scaling-stroke; fill: none; stroke: rgb(0, 0, 0); stroke-opacity: 1; stroke-width: 1px; opacity: 1; stroke-dasharray: none;"/></g><g class="points"/><g class="text"/></g><g class="trace scatter tracec6549f" style="stroke-miterlimit: 2;"><g class="fills"><g><path class="js-fill" d="M481.26,337.64L481.26,337.64L481.26,44.51L481.26,337.64L498.44,337.64L498.44,44.51L481.26,44.51L481.26,44.51" style="fill: rgb(0, 154, 250); fill-opacity: 1; stroke-width: 0;"/></g></g><g class="errorbars"/><g class="lines"><path class="js-line" d="M481.26,44.51L481.26,337.64L498.44,337.64L498.44,44.51L481.26,44.51L481.26,44.51" style="vector-effect: non-scaling-stroke; fill: none; stroke: rgb(0, 0, 0); stroke-opacity: 1; stroke-width: 1px; opacity: 1; stroke-dasharray: none;"/></g><g class="points"/><g class="text"/></g><g class="trace scatter trace52bc25" style="stroke-miterlimit: 2;"><g class="fills"><g><path class="js-fill" d="M502.74,337.64L502.74,337.64L502.74,0L502.74,337.64L519.92,337.64L519.92,0L502.74,0L502.74,0" style="fill: rgb(0, 154, 250); fill-opacity: 1; stroke-width: 0;"/></g></g><g class="errorbars"/><g class="lines"><path class="js-line" d="M502.74,0L502.74,337.64L519.92,337.64L519.92,0L502.74,0L502.74,0" style="vector-effect: non-scaling-stroke; fill: none; stroke: rgb(0, 0, 0); stroke-opacity: 1; stroke-width: 1px; opacity: 1; stroke-dasharray: none;"/></g><g class="points"/><g class="text"/></g><g class="trace scatter trace694af4" style="stroke-miterlimit: 2; opacity: 1;"><g class="fills"/><g class="errorbars"/><g class="lines"/><g class="points"><path class="point" transform="translate(38.85,254.98)" d="M3,3H-3V-3H3Z" style="opacity: 1; stroke-width: 1px; fill: rgb(255, 0, 0); fill-opacity: 0; stroke: rgb(0, 0, 0); stroke-opacity: 0;"/><path class="point" transform="translate(60.33,171.11)" d="M3,3H-3V-3H3Z" style="opacity: 1; stroke-width: 1px; fill: rgb(255, 0, 0); fill-opacity: 0; stroke: rgb(0, 0, 0); stroke-opacity: 0;"/><path class="point" transform="translate(81.8,139.94)" d="M3,3H-3V-3H3Z" style="opacity: 1; stroke-width: 1px; fill: rgb(255, 0, 0); fill-opacity: 0; stroke: rgb(0, 0, 0); stroke-opacity: 0;"/><path class="point" transform="translate(103.28,232.47)" d="M3,3H-3V-3H3Z" style="opacity: 1; stroke-width: 1px; fill: rgb(255, 0, 0); fill-opacity: 0; stroke: rgb(0, 0, 0); stroke-opacity: 0;"/><path class="point" transform="translate(124.76,266.05)" d="M3,3H-3V-3H3Z" style="opacity: 1; stroke-width: 1px; fill: rgb(255, 0, 0); fill-opacity: 0; stroke: rgb(0, 0, 0); stroke-opacity: 0;"/><path class="point" transform="translate(146.23,256.94)" d="M3,3H-3V-3H3Z" style="opacity: 1; stroke-width: 1px; fill: rgb(255, 0, 0); fill-opacity: 0; stroke: rgb(0, 0, 0); stroke-opacity: 0;"/><path class="point" transform="translate(167.71,241.31)" d="M3,3H-3V-3H3Z" style="opacity: 1; stroke-width: 1px; fill: rgb(255, 0, 0); fill-opacity: 0; stroke: rgb(0, 0, 0); stroke-opacity: 0;"/><path class="point" transform="translate(189.19,235.98)" d="M3,3H-3V-3H3Z" style="opacity: 1; stroke-width: 1px; fill: rgb(255, 0, 0); fill-opacity: 0; stroke: rgb(0, 0, 0); stroke-opacity: 0;"/><path class="point" transform="translate(210.66,246.38)" d="M3,3H-3V-3H3Z" style="opacity: 1; stroke-width: 1px; fill: rgb(255, 0, 0); fill-opacity: 0; stroke: rgb(0, 0, 0); stroke-opacity: 0;"/><path class="point" transform="translate(232.14,248.24)" d="M3,3H-3V-3H3Z" style="opacity: 1; stroke-width: 1px; fill: rgb(255, 0, 0); fill-opacity: 0; stroke: rgb(0, 0, 0); stroke-opacity: 0;"/><path class="point" transform="translate(253.61,246.78)" d="M3,3H-3V-3H3Z" style="opacity: 1; stroke-width: 1px; fill: rgb(255, 0, 0); fill-opacity: 0; stroke: rgb(0, 0, 0); stroke-opacity: 0;"/><path class="point" transform="translate(275.09,215.02)" d="M3,3H-3V-3H3Z" style="opacity: 1; stroke-width: 1px; fill: rgb(255, 0, 0); fill-opacity: 0; stroke: rgb(0, 0, 0); stroke-opacity: 0;"/><path class="point" transform="translate(296.57,215.62)" d="M3,3H-3V-3H3Z" style="opacity: 1; stroke-width: 1px; fill: rgb(255, 0, 0); fill-opacity: 0; stroke: rgb(0, 0, 0); stroke-opacity: 0;"/><path class="point" transform="translate(318.04,214.7)" d="M3,3H-3V-3H3Z" style="opacity: 1; stroke-width: 1px; fill: rgb(255, 0, 0); fill-opacity: 0; stroke: rgb(0, 0, 0); stroke-opacity: 0;"/><path class="point" transform="translate(339.52,190.64)" d="M3,3H-3V-3H3Z" style="opacity: 1; stroke-width: 1px; fill: rgb(255, 0, 0); fill-opacity: 0; stroke: rgb(0, 0, 0); stroke-opacity: 0;"/><path class="point" transform="translate(361,179.85)" d="M3,3H-3V-3H3Z" style="opacity: 1; stroke-width: 1px; fill: rgb(255, 0, 0); fill-opacity: 0; stroke: rgb(0, 0, 0); stroke-opacity: 0;"/><path class="point" transform="translate(382.47,161.47)" d="M3,3H-3V-3H3Z" style="opacity: 1; stroke-width: 1px; fill: rgb(255, 0, 0); fill-opacity: 0; stroke: rgb(0, 0, 0); stroke-opacity: 0;"/><path class="point" transform="translate(403.95,22.91)" d="M3,3H-3V-3H3Z" style="opacity: 1; stroke-width: 1px; fill: rgb(255, 0, 0); fill-opacity: 0; stroke: rgb(0, 0, 0); stroke-opacity: 0;"/><path class="point" transform="translate(425.42,47.99)" d="M3,3H-3V-3H3Z" style="opacity: 1; stroke-width: 1px; fill: rgb(255, 0, 0); fill-opacity: 0; stroke: rgb(0, 0, 0); stroke-opacity: 0;"/><path class="point" transform="translate(446.9,43.82)" d="M3,3H-3V-3H3Z" style="opacity: 1; stroke-width: 1px; fill: rgb(255, 0, 0); fill-opacity: 0; stroke: rgb(0, 0, 0); stroke-opacity: 0;"/><path class="point" transform="translate(468.38,50.13)" d="M3,3H-3V-3H3Z" style="opacity: 1; stroke-width: 1px; fill: rgb(255, 0, 0); fill-opacity: 0; stroke: rgb(0, 0, 0); stroke-opacity: 0;"/><path class="point" transform="translate(489.85,44.51)" d="M3,3H-3V-3H3Z" style="opacity: 1; stroke-width: 1px; fill: rgb(255, 0, 0); fill-opacity: 0; stroke: rgb(0, 0, 0); stroke-opacity: 0;"/><path class="point" transform="translate(511.33,0)" d="M3,3H-3V-3H3Z" style="opacity: 1; stroke-width: 1px; fill: rgb(255, 0, 0); fill-opacity: 0; stroke: rgb(0, 0, 0); stroke-opacity: 0;"/></g><g class="text"/></g></g></g><g class="overplot"/><path class="xlines-above crisp" d="M94.88145231846019,420.9322506561679H646.0629921259842" style="fill: none; stroke-width: 1px; stroke: rgb(0, 0, 0); stroke-opacity: 1;"/><path class="ylines-above crisp" d="M95.38145231846019,82.79691601049865V420.4322506561679" style="fill: none; stroke-width: 1px; stroke: rgb(0, 0, 0); stroke-opacity: 1;"/><g class="overlines-above"/><g class="xaxislayer-above"><path class="xtick ticks crisp" d="M0,420.4322506561679v-5" transform="translate(199.1614523184602,0)" style="stroke: rgb(0, 0, 0); stroke-opacity: 1; stroke-width: 1px;"/><path class="xtick ticks crisp" d="M0,420.4322506561679v-5" transform="translate(306.5414523184602,0)" style="stroke: rgb(0, 0, 0); stroke-opacity: 1; stroke-width: 1px;"/><path class="xtick ticks crisp" d="M0,420.4322506561679v-5" transform="translate(413.9214523184602,0)" style="stroke: rgb(0, 0, 0); stroke-opacity: 1; stroke-width: 1px;"/><path class="xtick ticks crisp" d="M0,420.4322506561679v-5" transform="translate(521.3014523184602,0)" style="stroke: rgb(0, 0, 0); stroke-opacity: 1; stroke-width: 1px;"/><path class="xtick ticks crisp" d="M0,420.4322506561679v-5" transform="translate(628.6914523184602,0)" style="stroke: rgb(0, 0, 0); stroke-opacity: 1; stroke-width: 1px;"/><g class="xtick"><text text-anchor="middle" x="0" y="434.6322506561679" transform="translate(199.1614523184602,0)" style="font-family: sans-serif; font-size: 11px; fill: rgb(0, 0, 0); fill-opacity: 1; white-space: pre; opacity: 1;">5</text></g><g class="xtick"><text text-anchor="middle" x="0" y="434.6322506561679" style="font-family: sans-serif; font-size: 11px; fill: rgb(0, 0, 0); fill-opacity: 1; white-space: pre; opacity: 1;" transform="translate(306.5414523184602,0)">10</text></g><g class="xtick"><text text-anchor="middle" x="0" y="434.6322506561679" style="font-family: sans-serif; font-size: 11px; fill: rgb(0, 0, 0); fill-opacity: 1; white-space: pre; opacity: 1;" transform="translate(413.9214523184602,0)">15</text></g><g class="xtick"><text text-anchor="middle" x="0" y="434.6322506561679" style="font-family: sans-serif; font-size: 11px; fill: rgb(0, 0, 0); fill-opacity: 1; white-space: pre; opacity: 1;" transform="translate(521.3014523184602,0)">20</text></g><g class="xtick"><text text-anchor="middle" x="0" y="434.6322506561679" style="font-family: sans-serif; font-size: 11px; fill: rgb(0, 0, 0); fill-opacity: 1; white-space: pre; opacity: 1;" transform="translate(628.6914523184602,0)">25</text></g></g><g class="yaxislayer-above"><path class="ytick ticks crisp" d="M95.88145231846019,0h5" transform="translate(0,350.46691601049866)" style="stroke: rgb(0, 0, 0); stroke-opacity: 1; stroke-width: 1px;"/><path class="ytick ticks crisp" d="M95.88145231846019,0h5" transform="translate(0,280.5069160104987)" style="stroke: rgb(0, 0, 0); stroke-opacity: 1; stroke-width: 1px;"/><path class="ytick ticks crisp" d="M95.88145231846019,0h5" transform="translate(0,210.53691601049866)" style="stroke: rgb(0, 0, 0); stroke-opacity: 1; stroke-width: 1px;"/><path class="ytick ticks crisp" d="M95.88145231846019,0h5" transform="translate(0,140.57691601049865)" style="stroke: rgb(0, 0, 0); stroke-opacity: 1; stroke-width: 1px;"/><g class="ytick"><text text-anchor="end" x="92.68145231846019" y="3.8499999999999996" transform="translate(0,420.43691601049863)" style="font-family: sans-serif; font-size: 11px; fill: rgb(0, 0, 0); fill-opacity: 1; white-space: pre; opacity: 1;">0.0</text></g><g class="ytick"><text text-anchor="end" x="92.68145231846019" y="3.8499999999999996" style="font-family: sans-serif; font-size: 11px; fill: rgb(0, 0, 0); fill-opacity: 1; white-space: pre; opacity: 1;" transform="translate(0,350.46691601049866)">0.2</text></g><g class="ytick"><text text-anchor="end" x="92.68145231846019" y="3.8499999999999996" style="font-family: sans-serif; font-size: 11px; fill: rgb(0, 0, 0); fill-opacity: 1; white-space: pre; opacity: 1;" transform="translate(0,280.5069160104987)">0.4</text></g><g class="ytick"><text text-anchor="end" x="92.68145231846019" y="3.8499999999999996" style="font-family: sans-serif; font-size: 11px; fill: rgb(0, 0, 0); fill-opacity: 1; white-space: pre; opacity: 1;" transform="translate(0,210.53691601049866)">0.6</text></g><g class="ytick"><text text-anchor="end" x="92.68145231846019" y="3.8499999999999996" style="font-family: sans-serif; font-size: 11px; fill: rgb(0, 0, 0); fill-opacity: 1; white-space: pre; opacity: 1;" transform="translate(0,140.57691601049865)">0.8</text></g></g><g class="overaxes-above"/></g></g><g class="polarlayer"/><g class="ternarylayer"/><g class="geolayer"/><g class="funnelarealayer"/><g class="pielayer"/><g class="iciclelayer"/><g class="treemaplayer"/><g class="sunburstlayer"/><g class="glimages"/><defs id="topdefs-e72fd0"><g class="clips"/></defs><g class="layer-above"><g class="imagelayer"/><g class="shapelayer"/></g><g class="infolayer"><g class="g-gtitle"/><g class="g-xtitle"><text class="xtitle" x="370.9722222222222" y="462.140625" text-anchor="middle" style="font-family: sans-serif; font-size: 15px; fill: rgb(0, 0, 0); opacity: 1; font-weight: normal; white-space: pre;">log2(n)</text></g><g class="g-ytitle"><text class="ytitle" transform="rotate(-90,51.875,251.6145833333333)" x="51.875" y="251.6145833333333" text-anchor="middle" style="font-family: sans-serif; font-size: 15px; fill: rgb(0, 0, 0); opacity: 1; font-weight: normal; white-space: pre;">Relative Time (FFTW / CatabraFFT)</text></g><g class="annotation" data-index="0" style="opacity: 1;"><g class="annotation-text-g" transform="rotate(0,370.9722222222223,73.00000000000003)"><g class="cursor-pointer" transform="translate(-21,60)"><rect class="bg" x="0.5" y="0.5" width="782" height="25" style="stroke-width: 1px; stroke: rgb(0, 0, 0); stroke-opacity: 0; fill: rgb(0, 0, 0); fill-opacity: 0;"/><text class="annotation-text" text-anchor="middle" x="391.59375" y="20" style="font-family: sans-serif; font-size: 20px; fill: rgb(0, 0, 0); fill-opacity: 1; white-space: pre;">ComplexF32 FFT-2 Speedup (13th Gen Intel(R) Core(TM) i7-1355U@1186 Julia 1.11.2)</text></g></g></g></g></svg>