<svg class="main-svg" xmlns="http://www.w3.org/2000/svg" xmlns:xlink="http://www.w3.org/1999/xlink" width="700" height="500" style="" viewBox="0 0 700 500"><rect x="0" y="0" width="700" height="500" style="fill: rgb(255, 255, 255); fill-opacity: 1;"/><defs id="defs-640ad8"><g class="clips"><clipPath id="clip640ad8xyplot" class="plotclip"><rect width="550.181539807524" height="337.6353346456693"/></clipPath><clipPath class="axesclip" id="clip640ad8x"><rect x="95.88145231846019" y="0" width="550.181539807524" height="500"/></clipPath><clipPath class="axesclip" id="clip640ad8y"><rect x="0" y="82.79691601049865" width="700" height="337.6353346456693"/></clipPath><clipPath class="axesclip" id="clip640ad8xy"><rect x="95.88145231846019" y="82.79691601049865" width="550.181539807524" height="337.6353346456693"/></clipPath></g><g class="gradients"/><g class="patterns"/></defs><g class="bglayer"/><g class="layer-below"><g class="imagelayer"/><g class="shapelayer"/></g><g class="cartesianlayer"><g class="subplot xy"><g class="layer-subplot"><g class="shapelayer"/><g class="imagelayer"/></g><g class="gridlayer"><g class="x"><path class="xgrid crisp" transform="translate(156.93145231846017,0)" d="M0,82.79691601049865v337.6353346456693" style="stroke: rgb(0, 0, 0); stroke-opacity: 0.1; stroke-width: 0.5px;"/><path class="xgrid crisp" transform="translate(276.7514523184602,0)" d="M0,82.79691601049865v337.6353346456693" style="stroke: rgb(0, 0, 0); stroke-opacity: 0.1; stroke-width: 0.5px;"/><path class="xgrid crisp" transform="translate(396.57145231846016,0)" d="M0,82.79691601049865v337.6353346456693" style="stroke: rgb(0, 0, 0); stroke-opacity: 0.1; stroke-width: 0.5px;"/><path class="xgrid crisp" transform="translate(516.4014523184602,0)" d="M0,82.79691601049865v337.6353346456693" style="stroke: rgb(0, 0, 0); stroke-opacity: 0.1; stroke-width: 0.5px;"/><path class="xgrid crisp" transform="translate(636.2214523184603,0)" d="M0,82.79691601049865v337.6353346456693" style="stroke: rgb(0, 0, 0); stroke-opacity: 0.1; stroke-width: 0.5px;"/></g><g class="y"><path class="ygrid crisp" transform="translate(0,352.85691601049865)" d="M95.88145231846019,0h550.181539807524" style="stroke: rgb(0, 0, 0); stroke-opacity: 0.1; stroke-width: 0.5px;"/><path class="ygrid crisp" transform="translate(0,285.28691601049866)" d="M95.88145231846019,0h550.181539807524" style="stroke: rgb(0, 0, 0); stroke-opacity: 0.1; stroke-width: 0.5px;"/><path class="ygrid crisp" transform="translate(0,217.71691601049864)" d="M95.88145231846019,0h550.181539807524" style="stroke: rgb(0, 0, 0); stroke-opacity: 0.1; stroke-width: 0.5px;"/><path class="ygrid crisp" transform="translate(0,150.14691601049864)" d="M95.88145231846019,0h550.181539807524" style="stroke: rgb(0, 0, 0); stroke-opacity: 0.1; stroke-width: 0.5px;"/></g></g><g class="zerolinelayer"/><path class="xlines-below"/><path class="ylines-below"/><g class="overlines-below"/><g class="xaxislayer-below"/><g class="yaxislayer-below"/><g class="overaxes-below"/><g class="plot" transform="translate(95.88145231846019,82.79691601049865)" clip-path="url(#clip640ad8xyplot)"><g class="scatterlayer mlayer"><g class="trace scatter trace873b6d" style="stroke-miterlimit: 2;"><g class="fills"><g><path class="js-fill" d="M30.26,337.64L30.26,337.64L30.26,144.56L30.26,337.64L74.78,337.64L74.78,144.56L30.26,144.56L30.26,144.56" style="fill: rgb(0, 154, 250); fill-opacity: 1; stroke-width: 0;"/></g></g><g class="errorbars"/><g class="lines"><path class="js-line" d="M30.26,144.56L30.26,337.64L74.78,337.64L74.78,144.56L30.26,144.56L30.26,144.56" style="vector-effect: non-scaling-stroke; fill: none; stroke: rgb(0, 0, 0); stroke-opacity: 1; stroke-width: 1px; opacity: 1; stroke-dasharray: none;"/></g><g class="points"/><g class="text"/></g><g class="trace scatter trace14ba4e" style="stroke-miterlimit: 2;"><g class="fills"><g><path class="js-fill" d="M85.9,337.64L85.9,337.64L85.9,130.9L85.9,337.64L130.42,337.64L130.42,130.9L85.9,130.9L85.9,130.9" style="fill: rgb(0, 154, 250); fill-opacity: 1; stroke-width: 0;"/></g></g><g class="errorbars"/><g class="lines"><path class="js-line" d="M85.9,130.9L85.9,337.64L130.42,337.64L130.42,130.9L85.9,130.9L85.9,130.9" style="vector-effect: non-scaling-stroke; fill: none; stroke: rgb(0, 0, 0); stroke-opacity: 1; stroke-width: 1px; opacity: 1; stroke-dasharray: none;"/></g><g class="points"/><g class="text"/></g><g class="trace scatter trace3c38fc" style="stroke-miterlimit: 2;"><g class="fills"><g><path class="js-fill" d="M141.55,337.64L141.55,337.64L141.55,0L141.55,337.64L186.06,337.64L186.06,0L141.55,0L141.55,0" style="fill: rgb(0, 154, 250); fill-opacity: 1; stroke-width: 0;"/></g></g><g class="errorbars"/><g class="lines"><path class="js-line" d="M141.55,0L141.55,337.64L186.06,337.64L186.06,0L141.55,0L141.55,0" style="vector-effect: non-scaling-stroke; fill: none; stroke: rgb(0, 0, 0); stroke-opacity: 1; stroke-width: 1px; opacity: 1; stroke-dasharray: none;"/></g><g class="points"/><g class="text"/></g><g class="trace scatter trace87bef1" style="stroke-miterlimit: 2;"><g class="fills"><g><path class="js-fill" d="M197.19,337.64L197.19,337.64L197.19,173.62L197.19,337.64L241.7,337.64L241.7,173.62L197.19,173.62L197.19,173.62" style="fill: rgb(0, 154, 250); fill-opacity: 1; stroke-width: 0;"/></g></g><g class="errorbars"/><g class="lines"><path class="js-line" d="M197.19,173.62L197.19,337.64L241.7,337.64L241.7,173.62L197.19,173.62L197.19,173.62" style="vector-effect: non-scaling-stroke; fill: none; stroke: rgb(0, 0, 0); stroke-opacity: 1; stroke-width: 1px; opacity: 1; stroke-dasharray: none;"/></g><g class="points"/><g class="text"/></g><g class="trace scatter trace977d2f" style="stroke-miterlimit: 2;"><g class="fills"><g><path class="js-fill" d="M252.83,337.64L252.83,337.64L252.83,165.2L252.83,337.64L297.35,337.64L297.35,165.2L252.83,165.2L252.83,165.2" style="fill: rgb(0, 154, 250); fill-opacity: 1; stroke-width: 0;"/></g></g><g class="errorbars"/><g class="lines"><path class="js-line" d="M252.83,165.2L252.83,337.64L297.35,337.64L297.35,165.2L252.83,165.2L252.83,165.2" style="vector-effect: non-scaling-stroke; fill: none; stroke: rgb(0, 0, 0); stroke-opacity: 1; stroke-width: 1px; opacity: 1; stroke-dasharray: none;"/></g><g class="points"/><g class="text"/></g><g class="trace scatter trace499357" style="stroke-miterlimit: 2;"><g class="fills"><g><path class="js-fill" d="M308.48,337.64L308.48,337.64L308.48,127.93L308.48,337.64L352.99,337.64L352.99,127.93L308.48,127.93L308.48,127.93" style="fill: rgb(0, 154, 250); fill-opacity: 1; stroke-width: 0;"/></g></g><g class="errorbars"/><g class="lines"><path class="js-line" d="M308.48,127.93L308.48,337.64L352.99,337.64L352.99,127.93L308.48,127.93L308.48,127.93" style="vector-effect: non-scaling-stroke; fill: none; stroke: rgb(0, 0, 0); stroke-opacity: 1; stroke-width: 1px; opacity: 1; stroke-dasharray: none;"/></g><g class="points"/><g class="text"/></g><g class="trace scatter trace2cb352" style="stroke-miterlimit: 2;"><g class="fills"><g><path class="js-fill" d="M364.12,337.64L364.12,337.64L364.12,23.95L364.12,337.64L408.63,337.64L408.63,23.95L364.12,23.95L364.12,23.95" style="fill: rgb(0, 154, 250); fill-opacity: 1; stroke-width: 0;"/></g></g><g class="errorbars"/><g class="lines"><path class="js-line" d="M364.12,23.95L364.12,337.64L408.63,337.64L408.63,23.95L364.12,23.95L364.12,23.95" style="vector-effect: non-scaling-stroke; fill: none; stroke: rgb(0, 0, 0); stroke-opacity: 1; stroke-width: 1px; opacity: 1; stroke-dasharray: none;"/></g><g class="points"/><g class="text"/></g><g class="trace scatter trace2a28c0" style="stroke-miterlimit: 2;"><g class="fills"><g><path class="js-fill" d="M419.76,337.64L419.76,337.64L419.76,101.42L419.76,337.64L464.28,337.64L464.28,101.42L419.76,101.42L419.76,101.42" style="fill: rgb(0, 154, 250); fill-opacity: 1; stroke-width: 0;"/></g></g><g class="errorbars"/><g class="lines"><path class="js-line" d="M419.76,101.42L419.76,337.64L464.28,337.64L464.28,101.42L419.76,101.42L419.76,101.42" style="vector-effect: non-scaling-stroke; fill: none; stroke: rgb(0, 0, 0); stroke-opacity: 1; stroke-width: 1px; opacity: 1; stroke-dasharray: none;"/></g><g class="points"/><g class="text"/></g><g class="trace scatter traceff6f21" style="stroke-miterlimit: 2;"><g class="fills"><g><path class="js-fill" d="M475.41,337.64L475.41,337.64L475.41,69.2L475.41,337.64L519.92,337.64L519.92,69.2L475.41,69.2L475.41,69.2" style="fill: rgb(0, 154, 250); fill-opacity: 1; stroke-width: 0;"/></g></g><g class="errorbars"/><g class="lines"><path class="js-line" d="M475.41,69.2L475.41,337.64L519.92,337.64L519.92,69.2L475.41,69.2L475.41,69.2" style="vector-effect: non-scaling-stroke; fill: none; stroke: rgb(0, 0, 0); stroke-opacity: 1; stroke-width: 1px; opacity: 1; stroke-dasharray: none;"/></g><g class="points"/><g class="text"/></g><g class="trace scatter trace54cb86" style="stroke-miterlimit: 2; opacity: 1;"><g class="fills"/><g class="errorbars"/><g class="lines"/><g class="points"><path class="point" transform="translate(52.52,144.56)" d="M3,3H-3V-3H3Z" style="opacity: 1; stroke-width: 1px; fill: rgb(255, 0, 0); fill-opacity: 0; stroke: rgb(0, 0, 0); stroke-opacity: 0;"/><path class="point" transform="translate(108.16,130.9)" d="M3,3H-3V-3H3Z" style="opacity: 1; stroke-width: 1px; fill: rgb(255, 0, 0); fill-opacity: 0; stroke: rgb(0, 0, 0); stroke-opacity: 0;"/><path class="point" transform="translate(163.8,0)" d="M3,3H-3V-3H3Z" style="opacity: 1; stroke-width: 1px; fill: rgb(255, 0, 0); fill-opacity: 0; stroke: rgb(0, 0, 0); stroke-opacity: 0;"/><path class="point" transform="translate(219.45,173.62)" d="M3,3H-3V-3H3Z" style="opacity: 1; stroke-width: 1px; fill: rgb(255, 0, 0); fill-opacity: 0; stroke: rgb(0, 0, 0); stroke-opacity: 0;"/><path class="point" transform="translate(275.09,165.2)" d="M3,3H-3V-3H3Z" style="opacity: 1; stroke-width: 1px; fill: rgb(255, 0, 0); fill-opacity: 0; stroke: rgb(0, 0, 0); stroke-opacity: 0;"/><path class="point" transform="translate(330.73,127.93)" d="M3,3H-3V-3H3Z" style="opacity: 1; stroke-width: 1px; fill: rgb(255, 0, 0); fill-opacity: 0; stroke: rgb(0, 0, 0); stroke-opacity: 0;"/><path class="point" transform="translate(386.38,23.95)" d="M3,3H-3V-3H3Z" style="opacity: 1; stroke-width: 1px; fill: rgb(255, 0, 0); fill-opacity: 0; stroke: rgb(0, 0, 0); stroke-opacity: 0;"/><path class="point" transform="translate(442.02,101.42)" d="M3,3H-3V-3H3Z" style="opacity: 1; stroke-width: 1px; fill: rgb(255, 0, 0); fill-opacity: 0; stroke: rgb(0, 0, 0); stroke-opacity: 0;"/><path class="point" transform="translate(497.66,69.2)" d="M3,3H-3V-3H3Z" style="opacity: 1; stroke-width: 1px; fill: rgb(255, 0, 0); fill-opacity: 0; stroke: rgb(0, 0, 0); stroke-opacity: 0;"/></g><g class="text"/></g></g></g><g class="overplot"/><path class="xlines-above crisp" d="M94.88145231846019,420.9322506561679H646.0629921259842" style="fill: none; stroke-width: 1px; stroke: rgb(0, 0, 0); stroke-opacity: 1;"/><path class="ylines-above crisp" d="M95.38145231846019,82.79691601049865V420.4322506561679" style="fill: none; stroke-width: 1px; stroke: rgb(0, 0, 0); stroke-opacity: 1;"/><g class="overlines-above"/><g class="xaxislayer-above"><path class="xtick ticks crisp" d="M0,420.4322506561679v-5" transform="translate(156.93145231846017,0)" style="stroke: rgb(0, 0, 0); stroke-opacity: 1; stroke-width: 1px;"/><path class="xtick ticks crisp" d="M0,420.4322506561679v-5" transform="translate(276.7514523184602,0)" style="stroke: rgb(0, 0, 0); stroke-opacity: 1; stroke-width: 1px;"/><path class="xtick ticks crisp" d="M0,420.4322506561679v-5" transform="translate(396.57145231846016,0)" style="stroke: rgb(0, 0, 0); stroke-opacity: 1; stroke-width: 1px;"/><path class="xtick ticks crisp" d="M0,420.4322506561679v-5" transform="translate(516.4014523184602,0)" style="stroke: rgb(0, 0, 0); stroke-opacity: 1; stroke-width: 1px;"/><path class="xtick ticks crisp" d="M0,420.4322506561679v-5" transform="translate(636.2214523184603,0)" style="stroke: rgb(0, 0, 0); stroke-opacity: 1; stroke-width: 1px;"/><g class="xtick"><text text-anchor="middle" x="0" y="434.6322506561679" transform="translate(156.93145231846017,0)" style="font-family: sans-serif; font-size: 11px; fill: rgb(0, 0, 0); fill-opacity: 1; white-space: pre; opacity: 1;">5</text></g><g class="xtick"><text text-anchor="middle" x="0" y="434.6322506561679" style="font-family: sans-serif; font-size: 11px; fill: rgb(0, 0, 0); fill-opacity: 1; white-space: pre; opacity: 1;" transform="translate(276.7514523184602,0)">10</text></g><g class="xtick"><text text-anchor="middle" x="0" y="434.6322506561679" style="font-family: sans-serif; font-size: 11px; fill: rgb(0, 0, 0); fill-opacity: 1; white-space: pre; opacity: 1;" transform="translate(396.57145231846016,0)">15</text></g><g class="xtick"><text text-anchor="middle" x="0" y="434.6322506561679" style="font-family: sans-serif; font-size: 11px; fill: rgb(0, 0, 0); fill-opacity: 1; white-space: pre; opacity: 1;" transform="translate(516.4014523184602,0)">20</text></g><g class="xtick"><text text-anchor="middle" x="0" y="434.6322506561679" style="font-family: sans-serif; font-size: 11px; fill: rgb(0, 0, 0); fill-opacity: 1; white-space: pre; opacity: 1;" transform="translate(636.2214523184603,0)">25</text></g></g><g class="yaxislayer-above"><path class="ytick ticks crisp" d="M95.88145231846019,0h5" transform="translate(0,352.85691601049865)" style="stroke: rgb(0, 0, 0); stroke-opacity: 1; stroke-width: 1px;"/><path class="ytick ticks crisp" d="M95.88145231846019,0h5" transform="translate(0,285.28691601049866)" style="stroke: rgb(0, 0, 0); stroke-opacity: 1; stroke-width: 1px;"/><path class="ytick ticks crisp" d="M95.88145231846019,0h5" transform="translate(0,217.71691601049864)" style="stroke: rgb(0, 0, 0); stroke-opacity: 1; stroke-width: 1px;"/><path class="ytick ticks crisp" d="M95.88145231846019,0h5" transform="translate(0,150.14691601049864)" style="stroke: rgb(0, 0, 0); stroke-opacity: 1; stroke-width: 1px;"/><g class="ytick"><text text-anchor="end" x="92.68145231846019" y="3.8499999999999996" transform="translate(0,420.43691601049863)" style="font-family: sans-serif; font-size: 11px; fill: rgb(0, 0, 0); fill-opacity: 1; white-space: pre; opacity: 1;">0.0</text></g><g class="ytick"><text text-anchor="end" x="92.68145231846019" y="3.8499999999999996" style="font-family: sans-serif; font-size: 11px; fill: rgb(0, 0, 0); fill-opacity: 1; white-space: pre; opacity: 1;" transform="translate(0,352.85691601049865)">0.2</text></g><g class="ytick"><text text-anchor="end" x="92.68145231846019" y="3.8499999999999996" style="font-family: sans-serif; font-size: 11px; fill: rgb(0, 0, 0); fill-opacity: 1; white-space: pre; opacity: 1;" transform="translate(0,285.28691601049866)">0.4</text></g><g class="ytick"><text text-anchor="end" x="92.68145231846019" y="3.8499999999999996" style="font-family: sans-serif; font-size: 11px; fill: rgb(0, 0, 0); fill-opacity: 1; white-space: pre; opacity: 1;" transform="translate(0,217.71691601049864)">0.6</text></g><g class="ytick"><text text-anchor="end" x="92.68145231846019" y="3.8499999999999996" style="font-family: sans-serif; font-size: 11px; fill: rgb(0, 0, 0); fill-opacity: 1; white-space: pre; opacity: 1;" transform="translate(0,150.14691601049864)">0.8</text></g></g><g class="overaxes-above"/></g></g><g class="polarlayer"/><g class="ternarylayer"/><g class="geolayer"/><g class="funnelarealayer"/><g class="pielayer"/><g class="iciclelayer"/><g class="treemaplayer"/><g class="sunburstlayer"/><g class="glimages"/><defs id="topdefs-640ad8"><g class="clips"/></defs><g class="layer-above"><g class="imagelayer"/><g class="shapelayer"/></g><g class="infolayer"><g class="g-gtitle"/><g class="g-xtitle"><text class="xtitle" x="370.9722222222222" y="462.140625" text-anchor="middle" style="font-family: sans-serif; font-size: 15px; fill: rgb(0, 0, 0); opacity: 1; font-weight: normal; white-space: pre;">log2(n)</text></g><g class="g-ytitle"><text class="ytitle" transform="rotate(-90,51.875,251.6145833333333)" x="51.875" y="251.6145833333333" text-anchor="middle" style="font-family: sans-serif; font-size: 15px; fill: rgb(0, 0, 0); opacity: 1; font-weight: normal; white-space: pre;">Relative Time (FFTW / CatabraFFT)</text></g><g class="annotation" data-index="0" style="opacity: 1;"><g class="annotation-text-g" transform="rotate(0,370.9722222222223,73.00000000000003)"><g class="cursor-pointer" transform="translate(-22,60)"><rect class="bg" x="0.5" y="0.5" width="784" height="25" style="stroke-width: 1px; stroke: rgb(0, 0, 0); stroke-opacity: 0; fill: rgb(0, 0, 0); fill-opacity: 0;"/><text class="annotation-text" text-anchor="middle" x="392.328125" y="20" style="font-family: sans-serif; font-size: 20px; fill: rgb(0, 0, 0); fill-opacity: 1; white-space: pre;">ComplexF64 FFT-5 Speedup (13th Gen Intel(R) Core(TM) i7-1355U@3800 Julia 1.11.2)</text></g></g></g></g></svg>