<svg class="main-svg" xmlns="http://www.w3.org/2000/svg" xmlns:xlink="http://www.w3.org/1999/xlink" width="600" height="400" style=""><rect x="0" y="0" width="600" height="400" style="fill: rgb(255, 255, 255); fill-opacity: 1;"/><defs id="defs-a65f6e"><g class="clips"><clipPath id="clipa65f6exyplot" class="plotclip"><rect width="550.181539807524" height="311.6633858267717"/></clipPath><clipPath class="axesclip" id="clipa65f6ex"><rect x="45.881452318460184" y="0" width="550.181539807524" height="400"/></clipPath><clipPath class="axesclip" id="clipa65f6ey"><rect x="0" y="41.04330708661415" width="600" height="311.6633858267717"/></clipPath><clipPath class="axesclip" id="clipa65f6exy"><rect x="45.881452318460184" y="41.04330708661415" width="550.181539807524" height="311.6633858267717"/></clipPath></g><g class="gradients"/><g class="patterns"/></defs><g class="bglayer"/><g class="layer-below"><g class="imagelayer"/><g class="shapelayer"/></g><g class="cartesianlayer"><g class="subplot xy"><g class="layer-subplot"><g class="shapelayer"/><g class="imagelayer"/></g><g class="gridlayer"><g class="x"><path class="xgrid crisp" transform="translate(140.67145231846018,0)" d="M0,41.04330708661415v311.6633858267717" style="stroke: rgb(0, 0, 0); stroke-opacity: 0.1; stroke-width: 0.5px;"/><path class="xgrid crisp" transform="translate(235.5714523184602,0)" d="M0,41.04330708661415v311.6633858267717" style="stroke: rgb(0, 0, 0); stroke-opacity: 0.1; stroke-width: 0.5px;"/><path class="xgrid crisp" transform="translate(330.46145231846015,0)" d="M0,41.04330708661415v311.6633858267717" style="stroke: rgb(0, 0, 0); stroke-opacity: 0.1; stroke-width: 0.5px;"/><path class="xgrid crisp" transform="translate(425.3614523184602,0)" d="M0,41.04330708661415v311.6633858267717" style="stroke: rgb(0, 0, 0); stroke-opacity: 0.1; stroke-width: 0.5px;"/><path class="xgrid crisp" transform="translate(520.2514523184602,0)" d="M0,41.04330708661415v311.6633858267717" style="stroke: rgb(0, 0, 0); stroke-opacity: 0.1; stroke-width: 0.5px;"/></g><g class="y"><path class="ygrid crisp" transform="translate(0,289.36330708661416)" d="M45.881452318460184,0h550.181539807524" style="stroke: rgb(0, 0, 0); stroke-opacity: 0.1; stroke-width: 0.5px;"/><path class="ygrid crisp" transform="translate(0,226.01330708661413)" d="M45.881452318460184,0h550.181539807524" style="stroke: rgb(0, 0, 0); stroke-opacity: 0.1; stroke-width: 0.5px;"/><path class="ygrid crisp" transform="translate(0,162.67330708661416)" d="M45.881452318460184,0h550.181539807524" style="stroke: rgb(0, 0, 0); stroke-opacity: 0.1; stroke-width: 0.5px;"/><path class="ygrid crisp" transform="translate(0,99.33330708661416)" d="M45.881452318460184,0h550.181539807524" style="stroke: rgb(0, 0, 0); stroke-opacity: 0.1; stroke-width: 0.5px;"/></g></g><g class="zerolinelayer"/><path class="xlines-below"/><path class="ylines-below"/><g class="overlines-below"/><g class="xaxislayer-below"/><g class="yaxislayer-below"/><g class="overaxes-below"/><g class="plot" transform="translate(45.881452318460184,41.04330708661415)" clip-path="url(#clipa65f6exyplot)"><g class="scatterlayer mlayer"><g class="trace scatter trace12a439" style="stroke-miterlimit: 2;"><g class="fills"><g><path class="js-fill" d="M30.26,311.66L30.26,311.66L30.26,247.06L30.26,311.66L45.44,311.66L45.44,247.06L30.26,247.06L30.26,247.06" style="fill: rgb(0, 154, 250); fill-opacity: 1; stroke-width: 0;"/></g></g><g class="errorbars"/><g class="lines"><path class="js-line" d="M30.26,247.06L30.26,311.66L45.44,311.66L45.44,247.06L30.26,247.06L30.26,247.06" style="vector-effect: non-scaling-stroke; fill: none; stroke: rgb(0, 0, 0); stroke-opacity: 1; stroke-width: 1px; opacity: 1; stroke-dasharray: none;"/></g><g class="points"/><g class="text"/></g><g class="trace scatter trace75cba7" style="stroke-miterlimit: 2;"><g class="fills"><g><path class="js-fill" d="M49.24,311.66L49.24,311.66L49.24,145.26L49.24,311.66L64.42,311.66L64.42,145.26L49.24,145.26L49.24,145.26" style="fill: rgb(0, 154, 250); fill-opacity: 1; stroke-width: 0;"/></g></g><g class="errorbars"/><g class="lines"><path class="js-line" d="M49.24,145.26L49.24,311.66L64.42,311.66L64.42,145.26L49.24,145.26L49.24,145.26" style="vector-effect: non-scaling-stroke; fill: none; stroke: rgb(0, 0, 0); stroke-opacity: 1; stroke-width: 1px; opacity: 1; stroke-dasharray: none;"/></g><g class="points"/><g class="text"/></g><g class="trace scatter trace17072b" style="stroke-miterlimit: 2;"><g class="fills"><g><path class="js-fill" d="M68.22,311.66L68.22,311.66L68.22,110.04L68.22,311.66L83.4,311.66L83.4,110.04L68.22,110.04L68.22,110.04" style="fill: rgb(0, 154, 250); fill-opacity: 1; stroke-width: 0;"/></g></g><g class="errorbars"/><g class="lines"><path class="js-line" d="M68.22,110.04L68.22,311.66L83.4,311.66L83.4,110.04L68.22,110.04L68.22,110.04" style="vector-effect: non-scaling-stroke; fill: none; stroke: rgb(0, 0, 0); stroke-opacity: 1; stroke-width: 1px; opacity: 1; stroke-dasharray: none;"/></g><g class="points"/><g class="text"/></g><g class="trace scatter trace5cd5b0" style="stroke-miterlimit: 2;"><g class="fills"><g><path class="js-fill" d="M87.2,311.66L87.2,311.66L87.2,154L87.2,311.66L102.38,311.66L102.38,154L87.2,154L87.2,154" style="fill: rgb(0, 154, 250); fill-opacity: 1; stroke-width: 0;"/></g></g><g class="errorbars"/><g class="lines"><path class="js-line" d="M87.2,154L87.2,311.66L102.38,311.66L102.38,154L87.2,154L87.2,154" style="vector-effect: non-scaling-stroke; fill: none; stroke: rgb(0, 0, 0); stroke-opacity: 1; stroke-width: 1px; opacity: 1; stroke-dasharray: none;"/></g><g class="points"/><g class="text"/></g><g class="trace scatter tracee529ce" style="stroke-miterlimit: 2;"><g class="fills"><g><path class="js-fill" d="M106.18,311.66L106.18,311.66L106.18,152.77L106.18,311.66L121.36,311.66L121.36,152.77L106.18,152.77L106.18,152.77" style="fill: rgb(0, 154, 250); fill-opacity: 1; stroke-width: 0;"/></g></g><g class="errorbars"/><g class="lines"><path class="js-line" d="M106.18,152.77L106.18,311.66L121.36,311.66L121.36,152.77L106.18,152.77L106.18,152.77" style="vector-effect: non-scaling-stroke; fill: none; stroke: rgb(0, 0, 0); stroke-opacity: 1; stroke-width: 1px; opacity: 1; stroke-dasharray: none;"/></g><g class="points"/><g class="text"/></g><g class="trace scatter trace1d6925" style="stroke-miterlimit: 2;"><g class="fills"><g><path class="js-fill" d="M125.16,311.66L125.16,311.66L125.16,171.16L125.16,311.66L140.34,311.66L140.34,171.16L125.16,171.16L125.16,171.16" style="fill: rgb(0, 154, 250); fill-opacity: 1; stroke-width: 0;"/></g></g><g class="errorbars"/><g class="lines"><path class="js-line" d="M125.16,171.16L125.16,311.66L140.34,311.66L140.34,171.16L125.16,171.16L125.16,171.16" style="vector-effect: non-scaling-stroke; fill: none; stroke: rgb(0, 0, 0); stroke-opacity: 1; stroke-width: 1px; opacity: 1; stroke-dasharray: none;"/></g><g class="points"/><g class="text"/></g><g class="trace scatter trace641153" style="stroke-miterlimit: 2;"><g class="fills"><g><path class="js-fill" d="M144.14,311.66L144.14,311.66L144.14,249.82L144.14,311.66L159.32,311.66L159.32,249.82L144.14,249.82L144.14,249.82" style="fill: rgb(0, 154, 250); fill-opacity: 1; stroke-width: 0;"/></g></g><g class="errorbars"/><g class="lines"><path class="js-line" d="M144.14,249.82L144.14,311.66L159.32,311.66L159.32,249.82L144.14,249.82L144.14,249.82" style="vector-effect: non-scaling-stroke; fill: none; stroke: rgb(0, 0, 0); stroke-opacity: 1; stroke-width: 1px; opacity: 1; stroke-dasharray: none;"/></g><g class="points"/><g class="text"/></g><g class="trace scatter trace191bcc" style="stroke-miterlimit: 2;"><g class="fills"><g><path class="js-fill" d="M163.11,311.66L163.11,311.66L163.11,229.04L163.11,311.66L178.3,311.66L178.3,229.04L163.11,229.04L163.11,229.04" style="fill: rgb(0, 154, 250); fill-opacity: 1; stroke-width: 0;"/></g></g><g class="errorbars"/><g class="lines"><path class="js-line" d="M163.11,229.04L163.11,311.66L178.3,311.66L178.3,229.04L163.11,229.04L163.11,229.04" style="vector-effect: non-scaling-stroke; fill: none; stroke: rgb(0, 0, 0); stroke-opacity: 1; stroke-width: 1px; opacity: 1; stroke-dasharray: none;"/></g><g class="points"/><g class="text"/></g><g class="trace scatter tracebf3df2" style="stroke-miterlimit: 2;"><g class="fills"><g><path class="js-fill" d="M182.09,311.66L182.09,311.66L182.09,125.71L182.09,311.66L197.28,311.66L197.28,125.71L182.09,125.71L182.09,125.71" style="fill: rgb(0, 154, 250); fill-opacity: 1; stroke-width: 0;"/></g></g><g class="errorbars"/><g class="lines"><path class="js-line" d="M182.09,125.71L182.09,311.66L197.28,311.66L197.28,125.71L182.09,125.71L182.09,125.71" style="vector-effect: non-scaling-stroke; fill: none; stroke: rgb(0, 0, 0); stroke-opacity: 1; stroke-width: 1px; opacity: 1; stroke-dasharray: none;"/></g><g class="points"/><g class="text"/></g><g class="trace scatter traceac1a06" style="stroke-miterlimit: 2;"><g class="fills"><g><path class="js-fill" d="M201.07,311.66L201.07,311.66L201.07,134.7L201.07,311.66L216.26,311.66L216.26,134.7L201.07,134.7L201.07,134.7" style="fill: rgb(0, 154, 250); fill-opacity: 1; stroke-width: 0;"/></g></g><g class="errorbars"/><g class="lines"><path class="js-line" d="M201.07,134.7L201.07,311.66L216.26,311.66L216.26,134.7L201.07,134.7L201.07,134.7" style="vector-effect: non-scaling-stroke; fill: none; stroke: rgb(0, 0, 0); stroke-opacity: 1; stroke-width: 1px; opacity: 1; stroke-dasharray: none;"/></g><g class="points"/><g class="text"/></g><g class="trace scatter trace51198c" style="stroke-miterlimit: 2;"><g class="fills"><g><path class="js-fill" d="M220.05,311.66L220.05,311.66L220.05,238.01L220.05,311.66L235.23,311.66L235.23,238.01L220.05,238.01L220.05,238.01" style="fill: rgb(0, 154, 250); fill-opacity: 1; stroke-width: 0;"/></g></g><g class="errorbars"/><g class="lines"><path class="js-line" d="M220.05,238.01L220.05,311.66L235.23,311.66L235.23,238.01L220.05,238.01L220.05,238.01" style="vector-effect: non-scaling-stroke; fill: none; stroke: rgb(0, 0, 0); stroke-opacity: 1; stroke-width: 1px; opacity: 1; stroke-dasharray: none;"/></g><g class="points"/><g class="text"/></g><g class="trace scatter trace3ca9ec" style="stroke-miterlimit: 2;"><g class="fills"><g><path class="js-fill" d="M239.03,311.66L239.03,311.66L239.03,123.2L239.03,311.66L254.21,311.66L254.21,123.2L239.03,123.2L239.03,123.2" style="fill: rgb(0, 154, 250); fill-opacity: 1; stroke-width: 0;"/></g></g><g class="errorbars"/><g class="lines"><path class="js-line" d="M239.03,123.2L239.03,311.66L254.21,311.66L254.21,123.2L239.03,123.2L239.03,123.2" style="vector-effect: non-scaling-stroke; fill: none; stroke: rgb(0, 0, 0); stroke-opacity: 1; stroke-width: 1px; opacity: 1; stroke-dasharray: none;"/></g><g class="points"/><g class="text"/></g><g class="trace scatter tracebd76de" style="stroke-miterlimit: 2;"><g class="fills"><g><path class="js-fill" d="M258.01,311.66L258.01,311.66L258.01,207.78L258.01,311.66L273.19,311.66L273.19,207.78L258.01,207.78L258.01,207.78" style="fill: rgb(0, 154, 250); fill-opacity: 1; stroke-width: 0;"/></g></g><g class="errorbars"/><g class="lines"><path class="js-line" d="M258.01,207.78L258.01,311.66L273.19,311.66L273.19,207.78L258.01,207.78L258.01,207.78" style="vector-effect: non-scaling-stroke; fill: none; stroke: rgb(0, 0, 0); stroke-opacity: 1; stroke-width: 1px; opacity: 1; stroke-dasharray: none;"/></g><g class="points"/><g class="text"/></g><g class="trace scatter trace4c2761" style="stroke-miterlimit: 2;"><g class="fills"><g><path class="js-fill" d="M276.99,311.66L276.99,311.66L276.99,188.08L276.99,311.66L292.17,311.66L292.17,188.08L276.99,188.08L276.99,188.08" style="fill: rgb(0, 154, 250); fill-opacity: 1; stroke-width: 0;"/></g></g><g class="errorbars"/><g class="lines"><path class="js-line" d="M276.99,188.08L276.99,311.66L292.17,311.66L292.17,188.08L276.99,188.08L276.99,188.08" style="vector-effect: non-scaling-stroke; fill: none; stroke: rgb(0, 0, 0); stroke-opacity: 1; stroke-width: 1px; opacity: 1; stroke-dasharray: none;"/></g><g class="points"/><g class="text"/></g><g class="trace scatter tracecdb2f0" style="stroke-miterlimit: 2;"><g class="fills"><g><path class="js-fill" d="M295.97,311.66L295.97,311.66L295.97,184.01L295.97,311.66L311.15,311.66L311.15,184.01L295.97,184.01L295.97,184.01" style="fill: rgb(0, 154, 250); fill-opacity: 1; stroke-width: 0;"/></g></g><g class="errorbars"/><g class="lines"><path class="js-line" d="M295.97,184.01L295.97,311.66L311.15,311.66L311.15,184.01L295.97,184.01L295.97,184.01" style="vector-effect: non-scaling-stroke; fill: none; stroke: rgb(0, 0, 0); stroke-opacity: 1; stroke-width: 1px; opacity: 1; stroke-dasharray: none;"/></g><g class="points"/><g class="text"/></g><g class="trace scatter trace819096" style="stroke-miterlimit: 2;"><g class="fills"><g><path class="js-fill" d="M314.95,311.66L314.95,311.66L314.95,204.95L314.95,311.66L330.13,311.66L330.13,204.95L314.95,204.95L314.95,204.95" style="fill: rgb(0, 154, 250); fill-opacity: 1; stroke-width: 0;"/></g></g><g class="errorbars"/><g class="lines"><path class="js-line" d="M314.95,204.95L314.95,311.66L330.13,311.66L330.13,204.95L314.95,204.95L314.95,204.95" style="vector-effect: non-scaling-stroke; fill: none; stroke: rgb(0, 0, 0); stroke-opacity: 1; stroke-width: 1px; opacity: 1; stroke-dasharray: none;"/></g><g class="points"/><g class="text"/></g><g class="trace scatter trace68e3a0" style="stroke-miterlimit: 2;"><g class="fills"><g><path class="js-fill" d="M333.93,311.66L333.93,311.66L333.93,138.19L333.93,311.66L349.11,311.66L349.11,138.19L333.93,138.19L333.93,138.19" style="fill: rgb(0, 154, 250); fill-opacity: 1; stroke-width: 0;"/></g></g><g class="errorbars"/><g class="lines"><path class="js-line" d="M333.93,138.19L333.93,311.66L349.11,311.66L349.11,138.19L333.93,138.19L333.93,138.19" style="vector-effect: non-scaling-stroke; fill: none; stroke: rgb(0, 0, 0); stroke-opacity: 1; stroke-width: 1px; opacity: 1; stroke-dasharray: none;"/></g><g class="points"/><g class="text"/></g><g class="trace scatter trace6a6434" style="stroke-miterlimit: 2;"><g class="fills"><g><path class="js-fill" d="M352.9,311.66L352.9,311.66L352.9,14.5L352.9,311.66L368.09,311.66L368.09,14.5L352.9,14.5L352.9,14.5" style="fill: rgb(0, 154, 250); fill-opacity: 1; stroke-width: 0;"/></g></g><g class="errorbars"/><g class="lines"><path class="js-line" d="M352.9,14.5L352.9,311.66L368.09,311.66L368.09,14.5L352.9,14.5L352.9,14.5" style="vector-effect: non-scaling-stroke; fill: none; stroke: rgb(0, 0, 0); stroke-opacity: 1; stroke-width: 1px; opacity: 1; stroke-dasharray: none;"/></g><g class="points"/><g class="text"/></g><g class="trace scatter tracef0676f" style="stroke-miterlimit: 2;"><g class="fills"><g><path class="js-fill" d="M371.88,311.66L371.88,311.66L371.88,40.07L371.88,311.66L387.07,311.66L387.07,40.07L371.88,40.07L371.88,40.07" style="fill: rgb(0, 154, 250); fill-opacity: 1; stroke-width: 0;"/></g></g><g class="errorbars"/><g class="lines"><path class="js-line" d="M371.88,40.07L371.88,311.66L387.07,311.66L387.07,40.07L371.88,40.07L371.88,40.07" style="vector-effect: non-scaling-stroke; fill: none; stroke: rgb(0, 0, 0); stroke-opacity: 1; stroke-width: 1px; opacity: 1; stroke-dasharray: none;"/></g><g class="points"/><g class="text"/></g><g class="trace scatter trace2d2456" style="stroke-miterlimit: 2;"><g class="fills"><g><path class="js-fill" d="M390.86,311.66L390.86,311.66L390.86,39.54L390.86,311.66L406.05,311.66L406.05,39.54L390.86,39.54L390.86,39.54" style="fill: rgb(0, 154, 250); fill-opacity: 1; stroke-width: 0;"/></g></g><g class="errorbars"/><g class="lines"><path class="js-line" d="M390.86,39.54L390.86,311.66L406.05,311.66L406.05,39.54L390.86,39.54L390.86,39.54" style="vector-effect: non-scaling-stroke; fill: none; stroke: rgb(0, 0, 0); stroke-opacity: 1; stroke-width: 1px; opacity: 1; stroke-dasharray: none;"/></g><g class="points"/><g class="text"/></g><g class="trace scatter trace397265" style="stroke-miterlimit: 2;"><g class="fills"><g><path class="js-fill" d="M409.84,311.66L409.84,311.66L409.84,45.76L409.84,311.66L425.03,311.66L425.03,45.76L409.84,45.76L409.84,45.76" style="fill: rgb(0, 154, 250); fill-opacity: 1; stroke-width: 0;"/></g></g><g class="errorbars"/><g class="lines"><path class="js-line" d="M409.84,45.76L409.84,311.66L425.03,311.66L425.03,45.76L409.84,45.76L409.84,45.76" style="vector-effect: non-scaling-stroke; fill: none; stroke: rgb(0, 0, 0); stroke-opacity: 1; stroke-width: 1px; opacity: 1; stroke-dasharray: none;"/></g><g class="points"/><g class="text"/></g><g class="trace scatter trace936b18" style="stroke-miterlimit: 2;"><g class="fills"><g><path class="js-fill" d="M428.82,311.66L428.82,311.66L428.82,91.51L428.82,311.66L444,311.66L444,91.51L428.82,91.51L428.82,91.51" style="fill: rgb(0, 154, 250); fill-opacity: 1; stroke-width: 0;"/></g></g><g class="errorbars"/><g class="lines"><path class="js-line" d="M428.82,91.51L428.82,311.66L444,311.66L444,91.51L428.82,91.51L428.82,91.51" style="vector-effect: non-scaling-stroke; fill: none; stroke: rgb(0, 0, 0); stroke-opacity: 1; stroke-width: 1px; opacity: 1; stroke-dasharray: none;"/></g><g class="points"/><g class="text"/></g><g class="trace scatter trace63a380" style="stroke-miterlimit: 2;"><g class="fills"><g><path class="js-fill" d="M447.8,311.66L447.8,311.66L447.8,25.15L447.8,311.66L462.98,311.66L462.98,25.15L447.8,25.15L447.8,25.15" style="fill: rgb(0, 154, 250); fill-opacity: 1; stroke-width: 0;"/></g></g><g class="errorbars"/><g class="lines"><path class="js-line" d="M447.8,25.15L447.8,311.66L462.98,311.66L462.98,25.15L447.8,25.15L447.8,25.15" style="vector-effect: non-scaling-stroke; fill: none; stroke: rgb(0, 0, 0); stroke-opacity: 1; stroke-width: 1px; opacity: 1; stroke-dasharray: none;"/></g><g class="points"/><g class="text"/></g><g class="trace scatter trace64d10b" style="stroke-miterlimit: 2;"><g class="fills"><g><path class="js-fill" d="M466.78,311.66L466.78,311.66L466.78,5.02L466.78,311.66L481.96,311.66L481.96,5.02L466.78,5.02L466.78,5.02" style="fill: rgb(0, 154, 250); fill-opacity: 1; stroke-width: 0;"/></g></g><g class="errorbars"/><g class="lines"><path class="js-line" d="M466.78,5.02L466.78,311.66L481.96,311.66L481.96,5.02L466.78,5.02L466.78,5.02" style="vector-effect: non-scaling-stroke; fill: none; stroke: rgb(0, 0, 0); stroke-opacity: 1; stroke-width: 1px; opacity: 1; stroke-dasharray: none;"/></g><g class="points"/><g class="text"/></g><g class="trace scatter trace6a2023" style="stroke-miterlimit: 2;"><g class="fills"><g><path class="js-fill" d="M485.76,311.66L485.76,311.66L485.76,0L485.76,311.66L500.94,311.66L500.94,0L485.76,0L485.76,0" style="fill: rgb(0, 154, 250); fill-opacity: 1; stroke-width: 0;"/></g></g><g class="errorbars"/><g class="lines"><path class="js-line" d="M485.76,0L485.76,311.66L500.94,311.66L500.94,0L485.76,0L485.76,0" style="vector-effect: non-scaling-stroke; fill: none; stroke: rgb(0, 0, 0); stroke-opacity: 1; stroke-width: 1px; opacity: 1; stroke-dasharray: none;"/></g><g class="points"/><g class="text"/></g><g class="trace scatter trace5b871e" style="stroke-miterlimit: 2;"><g class="fills"><g><path class="js-fill" d="M504.74,311.66L504.74,311.66L504.74,15.07L504.74,311.66L519.92,311.66L519.92,15.07L504.74,15.07L504.74,15.07" style="fill: rgb(0, 154, 250); fill-opacity: 1; stroke-width: 0;"/></g></g><g class="errorbars"/><g class="lines"><path class="js-line" d="M504.74,15.07L504.74,311.66L519.92,311.66L519.92,15.07L504.74,15.07L504.74,15.07" style="vector-effect: non-scaling-stroke; fill: none; stroke: rgb(0, 0, 0); stroke-opacity: 1; stroke-width: 1px; opacity: 1; stroke-dasharray: none;"/></g><g class="points"/><g class="text"/></g><g class="trace scatter trace3c2549" style="stroke-miterlimit: 2; opacity: 1;"><g class="fills"/><g class="errorbars"/><g class="lines"/><g class="points"><path class="point" transform="translate(37.85,247.06)" d="M3,3H-3V-3H3Z" style="opacity: 1; stroke-width: 1px; fill: rgb(255, 0, 0); fill-opacity: 0; stroke: rgb(0, 0, 0); stroke-opacity: 0;"/><path class="point" transform="translate(56.83,145.26)" d="M3,3H-3V-3H3Z" style="opacity: 1; stroke-width: 1px; fill: rgb(255, 0, 0); fill-opacity: 0; stroke: rgb(0, 0, 0); stroke-opacity: 0;"/><path class="point" transform="translate(75.81,110.04)" d="M3,3H-3V-3H3Z" style="opacity: 1; stroke-width: 1px; fill: rgb(255, 0, 0); fill-opacity: 0; stroke: rgb(0, 0, 0); stroke-opacity: 0;"/><path class="point" transform="translate(94.79,154)" d="M3,3H-3V-3H3Z" style="opacity: 1; stroke-width: 1px; fill: rgb(255, 0, 0); fill-opacity: 0; stroke: rgb(0, 0, 0); stroke-opacity: 0;"/><path class="point" transform="translate(113.77,152.77)" d="M3,3H-3V-3H3Z" style="opacity: 1; stroke-width: 1px; fill: rgb(255, 0, 0); fill-opacity: 0; stroke: rgb(0, 0, 0); stroke-opacity: 0;"/><path class="point" transform="translate(132.75,171.16)" d="M3,3H-3V-3H3Z" style="opacity: 1; stroke-width: 1px; fill: rgb(255, 0, 0); fill-opacity: 0; stroke: rgb(0, 0, 0); stroke-opacity: 0;"/><path class="point" transform="translate(151.73,249.82)" d="M3,3H-3V-3H3Z" style="opacity: 1; stroke-width: 1px; fill: rgb(255, 0, 0); fill-opacity: 0; stroke: rgb(0, 0, 0); stroke-opacity: 0;"/><path class="point" transform="translate(170.71,229.04)" d="M3,3H-3V-3H3Z" style="opacity: 1; stroke-width: 1px; fill: rgb(255, 0, 0); fill-opacity: 0; stroke: rgb(0, 0, 0); stroke-opacity: 0;"/><path class="point" transform="translate(189.69,125.71)" d="M3,3H-3V-3H3Z" style="opacity: 1; stroke-width: 1px; fill: rgb(255, 0, 0); fill-opacity: 0; stroke: rgb(0, 0, 0); stroke-opacity: 0;"/><path class="point" transform="translate(208.66,134.7)" d="M3,3H-3V-3H3Z" style="opacity: 1; stroke-width: 1px; fill: rgb(255, 0, 0); fill-opacity: 0; stroke: rgb(0, 0, 0); stroke-opacity: 0;"/><path class="point" transform="translate(227.64,238.01)" d="M3,3H-3V-3H3Z" style="opacity: 1; stroke-width: 1px; fill: rgb(255, 0, 0); fill-opacity: 0; stroke: rgb(0, 0, 0); stroke-opacity: 0;"/><path class="point" transform="translate(246.62,123.2)" d="M3,3H-3V-3H3Z" style="opacity: 1; stroke-width: 1px; fill: rgb(255, 0, 0); fill-opacity: 0; stroke: rgb(0, 0, 0); stroke-opacity: 0;"/><path class="point" transform="translate(265.6,207.78)" d="M3,3H-3V-3H3Z" style="opacity: 1; stroke-width: 1px; fill: rgb(255, 0, 0); fill-opacity: 0; stroke: rgb(0, 0, 0); stroke-opacity: 0;"/><path class="point" transform="translate(284.58,188.08)" d="M3,3H-3V-3H3Z" style="opacity: 1; stroke-width: 1px; fill: rgb(255, 0, 0); fill-opacity: 0; stroke: rgb(0, 0, 0); stroke-opacity: 0;"/><path class="point" transform="translate(303.56,184.01)" d="M3,3H-3V-3H3Z" style="opacity: 1; stroke-width: 1px; fill: rgb(255, 0, 0); fill-opacity: 0; stroke: rgb(0, 0, 0); stroke-opacity: 0;"/><path class="point" transform="translate(322.54,204.95)" d="M3,3H-3V-3H3Z" style="opacity: 1; stroke-width: 1px; fill: rgb(255, 0, 0); fill-opacity: 0; stroke: rgb(0, 0, 0); stroke-opacity: 0;"/><path class="point" transform="translate(341.52,138.19)" d="M3,3H-3V-3H3Z" style="opacity: 1; stroke-width: 1px; fill: rgb(255, 0, 0); fill-opacity: 0; stroke: rgb(0, 0, 0); stroke-opacity: 0;"/><path class="point" transform="translate(360.5,14.5)" d="M3,3H-3V-3H3Z" style="opacity: 1; stroke-width: 1px; fill: rgb(255, 0, 0); fill-opacity: 0; stroke: rgb(0, 0, 0); stroke-opacity: 0;"/><path class="point" transform="translate(379.48,40.07)" d="M3,3H-3V-3H3Z" style="opacity: 1; stroke-width: 1px; fill: rgb(255, 0, 0); fill-opacity: 0; stroke: rgb(0, 0, 0); stroke-opacity: 0;"/><path class="point" transform="translate(398.45,39.54)" d="M3,3H-3V-3H3Z" style="opacity: 1; stroke-width: 1px; fill: rgb(255, 0, 0); fill-opacity: 0; stroke: rgb(0, 0, 0); stroke-opacity: 0;"/><path class="point" transform="translate(417.43,45.76)" d="M3,3H-3V-3H3Z" style="opacity: 1; stroke-width: 1px; fill: rgb(255, 0, 0); fill-opacity: 0; stroke: rgb(0, 0, 0); stroke-opacity: 0;"/><path class="point" transform="translate(436.41,91.51)" d="M3,3H-3V-3H3Z" style="opacity: 1; stroke-width: 1px; fill: rgb(255, 0, 0); fill-opacity: 0; stroke: rgb(0, 0, 0); stroke-opacity: 0;"/><path class="point" transform="translate(455.39,25.15)" d="M3,3H-3V-3H3Z" style="opacity: 1; stroke-width: 1px; fill: rgb(255, 0, 0); fill-opacity: 0; stroke: rgb(0, 0, 0); stroke-opacity: 0;"/><path class="point" transform="translate(474.37,5.02)" d="M3,3H-3V-3H3Z" style="opacity: 1; stroke-width: 1px; fill: rgb(255, 0, 0); fill-opacity: 0; stroke: rgb(0, 0, 0); stroke-opacity: 0;"/><path class="point" transform="translate(493.35,0)" d="M3,3H-3V-3H3Z" style="opacity: 1; stroke-width: 1px; fill: rgb(255, 0, 0); fill-opacity: 0; stroke: rgb(0, 0, 0); stroke-opacity: 0;"/><path class="point" transform="translate(512.33,15.07)" d="M3,3H-3V-3H3Z" style="opacity: 1; stroke-width: 1px; fill: rgb(255, 0, 0); fill-opacity: 0; stroke: rgb(0, 0, 0); stroke-opacity: 0;"/></g><g class="text"/></g></g></g><g class="overplot"/><path class="xlines-above crisp" d="M44.881452318460184,353.20669291338584H596.0629921259842" style="fill: none; stroke-width: 1px; stroke: rgb(0, 0, 0); stroke-opacity: 1;"/><path class="ylines-above crisp" d="M45.381452318460184,41.04330708661415V352.70669291338584" style="fill: none; stroke-width: 1px; stroke: rgb(0, 0, 0); stroke-opacity: 1;"/><g class="overlines-above"/><g class="xaxislayer-above"><path class="xtick ticks crisp" d="M0,352.70669291338584v-5" transform="translate(140.67145231846018,0)" style="stroke: rgb(0, 0, 0); stroke-opacity: 1; stroke-width: 1px;"/><path class="xtick ticks crisp" d="M0,352.70669291338584v-5" transform="translate(235.5714523184602,0)" style="stroke: rgb(0, 0, 0); stroke-opacity: 1; stroke-width: 1px;"/><path class="xtick ticks crisp" d="M0,352.70669291338584v-5" transform="translate(330.46145231846015,0)" style="stroke: rgb(0, 0, 0); stroke-opacity: 1; stroke-width: 1px;"/><path class="xtick ticks crisp" d="M0,352.70669291338584v-5" transform="translate(425.3614523184602,0)" style="stroke: rgb(0, 0, 0); stroke-opacity: 1; stroke-width: 1px;"/><path class="xtick ticks crisp" d="M0,352.70669291338584v-5" transform="translate(520.2514523184602,0)" style="stroke: rgb(0, 0, 0); stroke-opacity: 1; stroke-width: 1px;"/><g class="xtick"><text text-anchor="middle" x="0" y="366.9066929133858" transform="translate(140.67145231846018,0)" style="font-family: sans-serif; font-size: 11px; fill: rgb(0, 0, 0); fill-opacity: 1; white-space: pre; opacity: 1;">5</text></g><g class="xtick"><text text-anchor="middle" x="0" y="366.9066929133858" style="font-family: sans-serif; font-size: 11px; fill: rgb(0, 0, 0); fill-opacity: 1; white-space: pre; opacity: 1;" transform="translate(235.5714523184602,0)">10</text></g><g class="xtick"><text text-anchor="middle" x="0" y="366.9066929133858" style="font-family: sans-serif; font-size: 11px; fill: rgb(0, 0, 0); fill-opacity: 1; white-space: pre; opacity: 1;" transform="translate(330.46145231846015,0)">15</text></g><g class="xtick"><text text-anchor="middle" x="0" y="366.9066929133858" style="font-family: sans-serif; font-size: 11px; fill: rgb(0, 0, 0); fill-opacity: 1; white-space: pre; opacity: 1;" transform="translate(425.3614523184602,0)">20</text></g><g class="xtick"><text text-anchor="middle" x="0" y="366.9066929133858" style="font-family: sans-serif; font-size: 11px; fill: rgb(0, 0, 0); fill-opacity: 1; white-space: pre; opacity: 1;" transform="translate(520.2514523184602,0)">25</text></g></g><g class="yaxislayer-above"><path class="ytick ticks crisp" d="M45.881452318460184,0h5" transform="translate(0,289.36330708661416)" style="stroke: rgb(0, 0, 0); stroke-opacity: 1; stroke-width: 1px;"/><path class="ytick ticks crisp" d="M45.881452318460184,0h5" transform="translate(0,226.01330708661413)" style="stroke: rgb(0, 0, 0); stroke-opacity: 1; stroke-width: 1px;"/><path class="ytick ticks crisp" d="M45.881452318460184,0h5" transform="translate(0,162.67330708661416)" style="stroke: rgb(0, 0, 0); stroke-opacity: 1; stroke-width: 1px;"/><path class="ytick ticks crisp" d="M45.881452318460184,0h5" transform="translate(0,99.33330708661416)" style="stroke: rgb(0, 0, 0); stroke-opacity: 1; stroke-width: 1px;"/><g class="ytick"><text text-anchor="end" x="42.68145231846018" y="3.8499999999999996" transform="translate(0,352.7033070866142)" style="font-family: sans-serif; font-size: 11px; fill: rgb(0, 0, 0); fill-opacity: 1; white-space: pre; opacity: 1;">0.0</text></g><g class="ytick"><text text-anchor="end" x="42.68145231846018" y="3.8499999999999996" style="font-family: sans-serif; font-size: 11px; fill: rgb(0, 0, 0); fill-opacity: 1; white-space: pre; opacity: 1;" transform="translate(0,289.36330708661416)">0.2</text></g><g class="ytick"><text text-anchor="end" x="42.68145231846018" y="3.8499999999999996" style="font-family: sans-serif; font-size: 11px; fill: rgb(0, 0, 0); fill-opacity: 1; white-space: pre; opacity: 1;" transform="translate(0,226.01330708661413)">0.4</text></g><g class="ytick"><text text-anchor="end" x="42.68145231846018" y="3.8499999999999996" style="font-family: sans-serif; font-size: 11px; fill: rgb(0, 0, 0); fill-opacity: 1; white-space: pre; opacity: 1;" transform="translate(0,162.67330708661416)">0.6</text></g><g class="ytick"><text text-anchor="end" x="42.68145231846018" y="3.8499999999999996" style="font-family: sans-serif; font-size: 11px; fill: rgb(0, 0, 0); fill-opacity: 1; white-space: pre; opacity: 1;" transform="translate(0,99.33330708661416)">0.8</text></g></g><g class="overaxes-above"/></g></g><g class="polarlayer"/><g class="ternarylayer"/><g class="geolayer"/><g class="funnelarealayer"/><g class="pielayer"/><g class="iciclelayer"/><g class="treemaplayer"/><g class="sunburstlayer"/><g class="glimages"/><defs id="topdefs-a65f6e"><g class="clips"/></defs><g class="layer-above"><g class="imagelayer"/><g class="shapelayer"/></g><g class="infolayer"><g class="g-gtitle"/><g class="g-xtitle" transform="translate(0,-10.599848965021579)"><text class="xtitle" x="320.9722222222222" y="407.70669291338584" text-anchor="middle" style="font-family: sans-serif; font-size: 15px; fill: rgb(0, 0, 0); opacity: 1; font-weight: normal; white-space: pre;">log2(n)</text></g><g class="g-ytitle" transform="translate(7.427734375,0)"><text class="ytitle" transform="rotate(-90,5.881452318460184,196.875)" x="5.881452318460184" y="196.875" text-anchor="middle" style="font-family: sans-serif; font-size: 15px; fill: rgb(0, 0, 0); opacity: 1; font-weight: normal; white-space: pre;">Relative Time (FFTW / CatabraFFT)</text></g><g class="annotation" data-index="0" style="opacity: 1;"><g class="annotation-text-g" transform="rotate(0,320.9722222222223,33.00000000000002)"><g class="cursor-pointer" transform="translate(-62,20)"><rect class="bg" x="0.5" y="0.5" width="765" height="25" style="stroke-width: 1px; stroke: rgb(0, 0, 0); stroke-opacity: 0; fill: rgb(0, 0, 0); fill-opacity: 0;"/><text class="annotation-text" text-anchor="middle" x="382.9228515625" y="19.939453125" style="font-family: sans-serif; font-size: 20px; fill: rgb(0, 0, 0); fill-opacity: 1; white-space: pre;">ComplexF32 FFT Speedup (13th Gen Intel(R) Core(TM) i7-1355U@3200 Julia 1.11.2)</text></g></g></g></g></svg>