<svg class="main-svg" xmlns="http://www.w3.org/2000/svg" xmlns:xlink="http://www.w3.org/1999/xlink" width="700" height="500" style="" viewBox="0 0 700 500"><rect x="0" y="0" width="700" height="500" style="fill: rgb(255, 255, 255); fill-opacity: 1;"/><defs id="defs-ae70d4"><g class="clips"><clipPath id="clipae70d4xyplot" class="plotclip"><rect width="541.2926509186352" height="337.6353346456693"/></clipPath><clipPath class="axesclip" id="clipae70d4x"><rect x="104.77034120734908" y="0" width="541.2926509186352" height="500"/></clipPath><clipPath class="axesclip" id="clipae70d4y"><rect x="0" y="82.79691601049865" width="700" height="337.6353346456693"/></clipPath><clipPath class="axesclip" id="clipae70d4xy"><rect x="104.77034120734908" y="82.79691601049865" width="541.2926509186352" height="337.6353346456693"/></clipPath></g><g class="gradients"/><g class="patterns"/></defs><g class="bglayer"/><g class="layer-below"><g class="imagelayer"/><g class="shapelayer"/></g><g class="cartesianlayer"><g class="subplot xy"><g class="layer-subplot"><g class="shapelayer"/><g class="imagelayer"/></g><g class="gridlayer"><g class="x"><path class="xgrid crisp" transform="translate(198.03034120734907,0)" d="M0,82.79691601049865v337.6353346456693" style="stroke: rgb(0, 0, 0); stroke-opacity: 0.1; stroke-width: 0.5px;"/><path class="xgrid crisp" transform="translate(291.3903412073491,0)" d="M0,82.79691601049865v337.6353346456693" style="stroke: rgb(0, 0, 0); stroke-opacity: 0.1; stroke-width: 0.5px;"/><path class="xgrid crisp" transform="translate(384.7503412073491,0)" d="M0,82.79691601049865v337.6353346456693" style="stroke: rgb(0, 0, 0); stroke-opacity: 0.1; stroke-width: 0.5px;"/><path class="xgrid crisp" transform="translate(478.11034120734905,0)" d="M0,82.79691601049865v337.6353346456693" style="stroke: rgb(0, 0, 0); stroke-opacity: 0.1; stroke-width: 0.5px;"/><path class="xgrid crisp" transform="translate(571.480341207349,0)" d="M0,82.79691601049865v337.6353346456693" style="stroke: rgb(0, 0, 0); stroke-opacity: 0.1; stroke-width: 0.5px;"/></g><g class="y"><path class="ygrid crisp" transform="translate(0,351.79691601049865)" d="M104.77034120734908,0h541.2926509186352" style="stroke: rgb(0, 0, 0); stroke-opacity: 0.1; stroke-width: 0.5px;"/><path class="ygrid crisp" transform="translate(0,283.15691601049866)" d="M104.77034120734908,0h541.2926509186352" style="stroke: rgb(0, 0, 0); stroke-opacity: 0.1; stroke-width: 0.5px;"/><path class="ygrid crisp" transform="translate(0,214.52691601049864)" d="M104.77034120734908,0h541.2926509186352" style="stroke: rgb(0, 0, 0); stroke-opacity: 0.1; stroke-width: 0.5px;"/><path class="ygrid crisp" transform="translate(0,145.88691601049865)" d="M104.77034120734908,0h541.2926509186352" style="stroke: rgb(0, 0, 0); stroke-opacity: 0.1; stroke-width: 0.5px;"/></g></g><g class="zerolinelayer"/><path class="xlines-below"/><path class="ylines-below"/><g class="overlines-below"/><g class="xaxislayer-below"/><g class="yaxislayer-below"/><g class="overaxes-below"/><g class="plot" transform="translate(104.77034120734908,82.79691601049865)" clip-path="url(#clipae70d4xyplot)"><g class="scatterlayer mlayer"><g class="trace scatter tracebd1845" style="stroke-miterlimit: 2;"><g class="fills"><g><path class="js-fill" d="M29.77,337.64L29.77,337.64L29.77,281.48L29.77,337.64L44.71,337.64L44.71,281.48L29.77,281.48L29.77,281.48" style="fill: rgb(0, 154, 250); fill-opacity: 1; stroke-width: 0;"/></g></g><g class="errorbars"/><g class="lines"><path class="js-line" d="M29.77,281.48L29.77,337.64L44.71,337.64L44.71,281.48L29.77,281.48L29.77,281.48" style="vector-effect: non-scaling-stroke; fill: none; stroke: rgb(0, 0, 0); stroke-opacity: 1; stroke-width: 1px; opacity: 1; stroke-dasharray: none;"/></g><g class="points"/><g class="text"/></g><g class="trace scatter trace8b6198" style="stroke-miterlimit: 2;"><g class="fills"><g><path class="js-fill" d="M48.44,337.64L48.44,337.64L48.44,201.19L48.44,337.64L63.38,337.64L63.38,201.19L48.44,201.19L48.44,201.19" style="fill: rgb(0, 154, 250); fill-opacity: 1; stroke-width: 0;"/></g></g><g class="errorbars"/><g class="lines"><path class="js-line" d="M48.44,201.19L48.44,337.64L63.38,337.64L63.38,201.19L48.44,201.19L48.44,201.19" style="vector-effect: non-scaling-stroke; fill: none; stroke: rgb(0, 0, 0); stroke-opacity: 1; stroke-width: 1px; opacity: 1; stroke-dasharray: none;"/></g><g class="points"/><g class="text"/></g><g class="trace scatter trace544428" style="stroke-miterlimit: 2;"><g class="fills"><g><path class="js-fill" d="M67.12,337.64L67.12,337.64L67.12,166.47L67.12,337.64L82.05,337.64L82.05,166.47L67.12,166.47L67.12,166.47" style="fill: rgb(0, 154, 250); fill-opacity: 1; stroke-width: 0;"/></g></g><g class="errorbars"/><g class="lines"><path class="js-line" d="M67.12,166.47L67.12,337.64L82.05,337.64L82.05,166.47L67.12,166.47L67.12,166.47" style="vector-effect: non-scaling-stroke; fill: none; stroke: rgb(0, 0, 0); stroke-opacity: 1; stroke-width: 1px; opacity: 1; stroke-dasharray: none;"/></g><g class="points"/><g class="text"/></g><g class="trace scatter trace4697a1" style="stroke-miterlimit: 2;"><g class="fills"><g><path class="js-fill" d="M85.79,337.64L85.79,337.64L85.79,206.4L85.79,337.64L100.73,337.64L100.73,206.4L85.79,206.4L85.79,206.4" style="fill: rgb(0, 154, 250); fill-opacity: 1; stroke-width: 0;"/></g></g><g class="errorbars"/><g class="lines"><path class="js-line" d="M85.79,206.4L85.79,337.64L100.73,337.64L100.73,206.4L85.79,206.4L85.79,206.4" style="vector-effect: non-scaling-stroke; fill: none; stroke: rgb(0, 0, 0); stroke-opacity: 1; stroke-width: 1px; opacity: 1; stroke-dasharray: none;"/></g><g class="points"/><g class="text"/></g><g class="trace scatter trace7ac91a" style="stroke-miterlimit: 2;"><g class="fills"><g><path class="js-fill" d="M104.46,337.64L104.46,337.64L104.46,207.04L104.46,337.64L119.4,337.64L119.4,207.04L104.46,207.04L104.46,207.04" style="fill: rgb(0, 154, 250); fill-opacity: 1; stroke-width: 0;"/></g></g><g class="errorbars"/><g class="lines"><path class="js-line" d="M104.46,207.04L104.46,337.64L119.4,337.64L119.4,207.04L104.46,207.04L104.46,207.04" style="vector-effect: non-scaling-stroke; fill: none; stroke: rgb(0, 0, 0); stroke-opacity: 1; stroke-width: 1px; opacity: 1; stroke-dasharray: none;"/></g><g class="points"/><g class="text"/></g><g class="trace scatter trace8311e3" style="stroke-miterlimit: 2;"><g class="fills"><g><path class="js-fill" d="M123.13,337.64L123.13,337.64L123.13,220.22L123.13,337.64L138.07,337.64L138.07,220.22L123.13,220.22L123.13,220.22" style="fill: rgb(0, 154, 250); fill-opacity: 1; stroke-width: 0;"/></g></g><g class="errorbars"/><g class="lines"><path class="js-line" d="M123.13,220.22L123.13,337.64L138.07,337.64L138.07,220.22L123.13,220.22L123.13,220.22" style="vector-effect: non-scaling-stroke; fill: none; stroke: rgb(0, 0, 0); stroke-opacity: 1; stroke-width: 1px; opacity: 1; stroke-dasharray: none;"/></g><g class="points"/><g class="text"/></g><g class="trace scatter tracedda996" style="stroke-miterlimit: 2;"><g class="fills"><g><path class="js-fill" d="M141.81,337.64L141.81,337.64L141.81,273.18L141.81,337.64L156.74,337.64L156.74,273.18L141.81,273.18L141.81,273.18" style="fill: rgb(0, 154, 250); fill-opacity: 1; stroke-width: 0;"/></g></g><g class="errorbars"/><g class="lines"><path class="js-line" d="M141.81,273.18L141.81,337.64L156.74,337.64L156.74,273.18L141.81,273.18L141.81,273.18" style="vector-effect: non-scaling-stroke; fill: none; stroke: rgb(0, 0, 0); stroke-opacity: 1; stroke-width: 1px; opacity: 1; stroke-dasharray: none;"/></g><g class="points"/><g class="text"/></g><g class="trace scatter tracea6eb1c" style="stroke-miterlimit: 2;"><g class="fills"><g><path class="js-fill" d="M160.48,337.64L160.48,337.64L160.48,269.57L160.48,337.64L175.42,337.64L175.42,269.57L160.48,269.57L160.48,269.57" style="fill: rgb(0, 154, 250); fill-opacity: 1; stroke-width: 0;"/></g></g><g class="errorbars"/><g class="lines"><path class="js-line" d="M160.48,269.57L160.48,337.64L175.42,337.64L175.42,269.57L160.48,269.57L160.48,269.57" style="vector-effect: non-scaling-stroke; fill: none; stroke: rgb(0, 0, 0); stroke-opacity: 1; stroke-width: 1px; opacity: 1; stroke-dasharray: none;"/></g><g class="points"/><g class="text"/></g><g class="trace scatter trace48fece" style="stroke-miterlimit: 2;"><g class="fills"><g><path class="js-fill" d="M179.15,337.64L179.15,337.64L179.15,184.06L179.15,337.64L194.09,337.64L194.09,184.06L179.15,184.06L179.15,184.06" style="fill: rgb(0, 154, 250); fill-opacity: 1; stroke-width: 0;"/></g></g><g class="errorbars"/><g class="lines"><path class="js-line" d="M179.15,184.06L179.15,337.64L194.09,337.64L194.09,184.06L179.15,184.06L179.15,184.06" style="vector-effect: non-scaling-stroke; fill: none; stroke: rgb(0, 0, 0); stroke-opacity: 1; stroke-width: 1px; opacity: 1; stroke-dasharray: none;"/></g><g class="points"/><g class="text"/></g><g class="trace scatter trace80990b" style="stroke-miterlimit: 2;"><g class="fills"><g><path class="js-fill" d="M197.82,337.64L197.82,337.64L197.82,261.16L197.82,337.64L212.76,337.64L212.76,261.16L197.82,261.16L197.82,261.16" style="fill: rgb(0, 154, 250); fill-opacity: 1; stroke-width: 0;"/></g></g><g class="errorbars"/><g class="lines"><path class="js-line" d="M197.82,261.16L197.82,337.64L212.76,337.64L212.76,261.16L197.82,261.16L197.82,261.16" style="vector-effect: non-scaling-stroke; fill: none; stroke: rgb(0, 0, 0); stroke-opacity: 1; stroke-width: 1px; opacity: 1; stroke-dasharray: none;"/></g><g class="points"/><g class="text"/></g><g class="trace scatter traceda891d" style="stroke-miterlimit: 2;"><g class="fills"><g><path class="js-fill" d="M216.5,337.64L216.5,337.64L216.5,264.32L216.5,337.64L231.43,337.64L231.43,264.32L216.5,264.32L216.5,264.32" style="fill: rgb(0, 154, 250); fill-opacity: 1; stroke-width: 0;"/></g></g><g class="errorbars"/><g class="lines"><path class="js-line" d="M216.5,264.32L216.5,337.64L231.43,337.64L231.43,264.32L216.5,264.32L216.5,264.32" style="vector-effect: non-scaling-stroke; fill: none; stroke: rgb(0, 0, 0); stroke-opacity: 1; stroke-width: 1px; opacity: 1; stroke-dasharray: none;"/></g><g class="points"/><g class="text"/></g><g class="trace scatter traceb1419e" style="stroke-miterlimit: 2;"><g class="fills"><g><path class="js-fill" d="M235.17,337.64L235.17,337.64L235.17,232.56L235.17,337.64L250.11,337.64L250.11,232.56L235.17,232.56L235.17,232.56" style="fill: rgb(0, 154, 250); fill-opacity: 1; stroke-width: 0;"/></g></g><g class="errorbars"/><g class="lines"><path class="js-line" d="M235.17,232.56L235.17,337.64L250.11,337.64L250.11,232.56L235.17,232.56L235.17,232.56" style="vector-effect: non-scaling-stroke; fill: none; stroke: rgb(0, 0, 0); stroke-opacity: 1; stroke-width: 1px; opacity: 1; stroke-dasharray: none;"/></g><g class="points"/><g class="text"/></g><g class="trace scatter trace175027" style="stroke-miterlimit: 2;"><g class="fills"><g><path class="js-fill" d="M253.84,337.64L253.84,337.64L253.84,244.21L253.84,337.64L268.78,337.64L268.78,244.21L253.84,244.21L253.84,244.21" style="fill: rgb(0, 154, 250); fill-opacity: 1; stroke-width: 0;"/></g></g><g class="errorbars"/><g class="lines"><path class="js-line" d="M253.84,244.21L253.84,337.64L268.78,337.64L268.78,244.21L253.84,244.21L253.84,244.21" style="vector-effect: non-scaling-stroke; fill: none; stroke: rgb(0, 0, 0); stroke-opacity: 1; stroke-width: 1px; opacity: 1; stroke-dasharray: none;"/></g><g class="points"/><g class="text"/></g><g class="trace scatter trace35571c" style="stroke-miterlimit: 2;"><g class="fills"><g><path class="js-fill" d="M272.51,337.64L272.51,337.64L272.51,238.09L272.51,337.64L287.45,337.64L287.45,238.09L272.51,238.09L272.51,238.09" style="fill: rgb(0, 154, 250); fill-opacity: 1; stroke-width: 0;"/></g></g><g class="errorbars"/><g class="lines"><path class="js-line" d="M272.51,238.09L272.51,337.64L287.45,337.64L287.45,238.09L272.51,238.09L272.51,238.09" style="vector-effect: non-scaling-stroke; fill: none; stroke: rgb(0, 0, 0); stroke-opacity: 1; stroke-width: 1px; opacity: 1; stroke-dasharray: none;"/></g><g class="points"/><g class="text"/></g><g class="trace scatter traceed90d3" style="stroke-miterlimit: 2;"><g class="fills"><g><path class="js-fill" d="M291.19,337.64L291.19,337.64L291.19,230.29L291.19,337.64L306.12,337.64L306.12,230.29L291.19,230.29L291.19,230.29" style="fill: rgb(0, 154, 250); fill-opacity: 1; stroke-width: 0;"/></g></g><g class="errorbars"/><g class="lines"><path class="js-line" d="M291.19,230.29L291.19,337.64L306.12,337.64L306.12,230.29L291.19,230.29L291.19,230.29" style="vector-effect: non-scaling-stroke; fill: none; stroke: rgb(0, 0, 0); stroke-opacity: 1; stroke-width: 1px; opacity: 1; stroke-dasharray: none;"/></g><g class="points"/><g class="text"/></g><g class="trace scatter trace7adc30" style="stroke-miterlimit: 2;"><g class="fills"><g><path class="js-fill" d="M309.86,337.64L309.86,337.64L309.86,205.26L309.86,337.64L324.8,337.64L324.8,205.26L309.86,205.26L309.86,205.26" style="fill: rgb(0, 154, 250); fill-opacity: 1; stroke-width: 0;"/></g></g><g class="errorbars"/><g class="lines"><path class="js-line" d="M309.86,205.26L309.86,337.64L324.8,337.64L324.8,205.26L309.86,205.26L309.86,205.26" style="vector-effect: non-scaling-stroke; fill: none; stroke: rgb(0, 0, 0); stroke-opacity: 1; stroke-width: 1px; opacity: 1; stroke-dasharray: none;"/></g><g class="points"/><g class="text"/></g><g class="trace scatter traceb7d29f" style="stroke-miterlimit: 2;"><g class="fills"><g><path class="js-fill" d="M328.53,337.64L328.53,337.64L328.53,224.51L328.53,337.64L343.47,337.64L343.47,224.51L328.53,224.51L328.53,224.51" style="fill: rgb(0, 154, 250); fill-opacity: 1; stroke-width: 0;"/></g></g><g class="errorbars"/><g class="lines"><path class="js-line" d="M328.53,224.51L328.53,337.64L343.47,337.64L343.47,224.51L328.53,224.51L328.53,224.51" style="vector-effect: non-scaling-stroke; fill: none; stroke: rgb(0, 0, 0); stroke-opacity: 1; stroke-width: 1px; opacity: 1; stroke-dasharray: none;"/></g><g class="points"/><g class="text"/></g><g class="trace scatter traceddaf93" style="stroke-miterlimit: 2;"><g class="fills"><g><path class="js-fill" d="M347.2,337.64L347.2,337.64L347.2,74.48L347.2,337.64L362.14,337.64L362.14,74.48L347.2,74.48L347.2,74.48" style="fill: rgb(0, 154, 250); fill-opacity: 1; stroke-width: 0;"/></g></g><g class="errorbars"/><g class="lines"><path class="js-line" d="M347.2,74.48L347.2,337.64L362.14,337.64L362.14,74.48L347.2,74.48L347.2,74.48" style="vector-effect: non-scaling-stroke; fill: none; stroke: rgb(0, 0, 0); stroke-opacity: 1; stroke-width: 1px; opacity: 1; stroke-dasharray: none;"/></g><g class="points"/><g class="text"/></g><g class="trace scatter tracee1c33a" style="stroke-miterlimit: 2;"><g class="fills"><g><path class="js-fill" d="M365.88,337.64L365.88,337.64L365.88,97.87L365.88,337.64L380.81,337.64L380.81,97.87L365.88,97.87L365.88,97.87" style="fill: rgb(0, 154, 250); fill-opacity: 1; stroke-width: 0;"/></g></g><g class="errorbars"/><g class="lines"><path class="js-line" d="M365.88,97.87L365.88,337.64L380.81,337.64L380.81,97.87L365.88,97.87L365.88,97.87" style="vector-effect: non-scaling-stroke; fill: none; stroke: rgb(0, 0, 0); stroke-opacity: 1; stroke-width: 1px; opacity: 1; stroke-dasharray: none;"/></g><g class="points"/><g class="text"/></g><g class="trace scatter tracea63625" style="stroke-miterlimit: 2;"><g class="fills"><g><path class="js-fill" d="M384.55,337.64L384.55,337.64L384.55,99.27L384.55,337.64L399.49,337.64L399.49,99.27L384.55,99.27L384.55,99.27" style="fill: rgb(0, 154, 250); fill-opacity: 1; stroke-width: 0;"/></g></g><g class="errorbars"/><g class="lines"><path class="js-line" d="M384.55,99.27L384.55,337.64L399.49,337.64L399.49,99.27L384.55,99.27L384.55,99.27" style="vector-effect: non-scaling-stroke; fill: none; stroke: rgb(0, 0, 0); stroke-opacity: 1; stroke-width: 1px; opacity: 1; stroke-dasharray: none;"/></g><g class="points"/><g class="text"/></g><g class="trace scatter trace992e36" style="stroke-miterlimit: 2;"><g class="fills"><g><path class="js-fill" d="M403.22,337.64L403.22,337.64L403.22,90.32L403.22,337.64L418.16,337.64L418.16,90.32L403.22,90.32L403.22,90.32" style="fill: rgb(0, 154, 250); fill-opacity: 1; stroke-width: 0;"/></g></g><g class="errorbars"/><g class="lines"><path class="js-line" d="M403.22,90.32L403.22,337.64L418.16,337.64L418.16,90.32L403.22,90.32L403.22,90.32" style="vector-effect: non-scaling-stroke; fill: none; stroke: rgb(0, 0, 0); stroke-opacity: 1; stroke-width: 1px; opacity: 1; stroke-dasharray: none;"/></g><g class="points"/><g class="text"/></g><g class="trace scatter trace1a02e1" style="stroke-miterlimit: 2;"><g class="fills"><g><path class="js-fill" d="M421.89,337.64L421.89,337.64L421.89,77.29L421.89,337.64L436.83,337.64L436.83,77.29L421.89,77.29L421.89,77.29" style="fill: rgb(0, 154, 250); fill-opacity: 1; stroke-width: 0;"/></g></g><g class="errorbars"/><g class="lines"><path class="js-line" d="M421.89,77.29L421.89,337.64L436.83,337.64L436.83,77.29L421.89,77.29L421.89,77.29" style="vector-effect: non-scaling-stroke; fill: none; stroke: rgb(0, 0, 0); stroke-opacity: 1; stroke-width: 1px; opacity: 1; stroke-dasharray: none;"/></g><g class="points"/><g class="text"/></g><g class="trace scatter trace74bb38" style="stroke-miterlimit: 2;"><g class="fills"><g><path class="js-fill" d="M440.57,337.64L440.57,337.64L440.57,0L440.57,337.64L455.5,337.64L455.5,0L440.57,0L440.57,0" style="fill: rgb(0, 154, 250); fill-opacity: 1; stroke-width: 0;"/></g></g><g class="errorbars"/><g class="lines"><path class="js-line" d="M440.57,0L440.57,337.64L455.5,337.64L455.5,0L440.57,0L440.57,0" style="vector-effect: non-scaling-stroke; fill: none; stroke: rgb(0, 0, 0); stroke-opacity: 1; stroke-width: 1px; opacity: 1; stroke-dasharray: none;"/></g><g class="points"/><g class="text"/></g><g class="trace scatter trace75c5d3" style="stroke-miterlimit: 2;"><g class="fills"><g><path class="js-fill" d="M459.24,337.64L459.24,337.64L459.24,71.69L459.24,337.64L474.18,337.64L474.18,71.69L459.24,71.69L459.24,71.69" style="fill: rgb(0, 154, 250); fill-opacity: 1; stroke-width: 0;"/></g></g><g class="errorbars"/><g class="lines"><path class="js-line" d="M459.24,71.69L459.24,337.64L474.18,337.64L474.18,71.69L459.24,71.69L459.24,71.69" style="vector-effect: non-scaling-stroke; fill: none; stroke: rgb(0, 0, 0); stroke-opacity: 1; stroke-width: 1px; opacity: 1; stroke-dasharray: none;"/></g><g class="points"/><g class="text"/></g><g class="trace scatter tracee17771" style="stroke-miterlimit: 2;"><g class="fills"><g><path class="js-fill" d="M477.91,337.64L477.91,337.64L477.91,54.27L477.91,337.64L492.85,337.64L492.85,54.27L477.91,54.27L477.91,54.27" style="fill: rgb(0, 154, 250); fill-opacity: 1; stroke-width: 0;"/></g></g><g class="errorbars"/><g class="lines"><path class="js-line" d="M477.91,54.27L477.91,337.64L492.85,337.64L492.85,54.27L477.91,54.27L477.91,54.27" style="vector-effect: non-scaling-stroke; fill: none; stroke: rgb(0, 0, 0); stroke-opacity: 1; stroke-width: 1px; opacity: 1; stroke-dasharray: none;"/></g><g class="points"/><g class="text"/></g><g class="trace scatter traceacaf4b" style="stroke-miterlimit: 2;"><g class="fills"><g><path class="js-fill" d="M496.58,337.64L496.58,337.64L496.58,28.45L496.58,337.64L511.52,337.64L511.52,28.45L496.58,28.45L496.58,28.45" style="fill: rgb(0, 154, 250); fill-opacity: 1; stroke-width: 0;"/></g></g><g class="errorbars"/><g class="lines"><path class="js-line" d="M496.58,28.45L496.58,337.64L511.52,337.64L511.52,28.45L496.58,28.45L496.58,28.45" style="vector-effect: non-scaling-stroke; fill: none; stroke: rgb(0, 0, 0); stroke-opacity: 1; stroke-width: 1px; opacity: 1; stroke-dasharray: none;"/></g><g class="points"/><g class="text"/></g><g class="trace scatter trace3ba87f" style="stroke-miterlimit: 2; opacity: 1;"><g class="fills"/><g class="errorbars"/><g class="lines"/><g class="points"><path class="point" transform="translate(37.24,281.48)" d="M3,3H-3V-3H3Z" style="opacity: 1; stroke-width: 1px; fill: rgb(255, 0, 0); fill-opacity: 0; stroke: rgb(0, 0, 0); stroke-opacity: 0;"/><path class="point" transform="translate(55.91,201.19)" d="M3,3H-3V-3H3Z" style="opacity: 1; stroke-width: 1px; fill: rgb(255, 0, 0); fill-opacity: 0; stroke: rgb(0, 0, 0); stroke-opacity: 0;"/><path class="point" transform="translate(74.59,166.47)" d="M3,3H-3V-3H3Z" style="opacity: 1; stroke-width: 1px; fill: rgb(255, 0, 0); fill-opacity: 0; stroke: rgb(0, 0, 0); stroke-opacity: 0;"/><path class="point" transform="translate(93.26,206.4)" d="M3,3H-3V-3H3Z" style="opacity: 1; stroke-width: 1px; fill: rgb(255, 0, 0); fill-opacity: 0; stroke: rgb(0, 0, 0); stroke-opacity: 0;"/><path class="point" transform="translate(111.93,207.04)" d="M3,3H-3V-3H3Z" style="opacity: 1; stroke-width: 1px; fill: rgb(255, 0, 0); fill-opacity: 0; stroke: rgb(0, 0, 0); stroke-opacity: 0;"/><path class="point" transform="translate(130.6,220.22)" d="M3,3H-3V-3H3Z" style="opacity: 1; stroke-width: 1px; fill: rgb(255, 0, 0); fill-opacity: 0; stroke: rgb(0, 0, 0); stroke-opacity: 0;"/><path class="point" transform="translate(149.28,273.18)" d="M3,3H-3V-3H3Z" style="opacity: 1; stroke-width: 1px; fill: rgb(255, 0, 0); fill-opacity: 0; stroke: rgb(0, 0, 0); stroke-opacity: 0;"/><path class="point" transform="translate(167.95,269.57)" d="M3,3H-3V-3H3Z" style="opacity: 1; stroke-width: 1px; fill: rgb(255, 0, 0); fill-opacity: 0; stroke: rgb(0, 0, 0); stroke-opacity: 0;"/><path class="point" transform="translate(186.62,184.06)" d="M3,3H-3V-3H3Z" style="opacity: 1; stroke-width: 1px; fill: rgb(255, 0, 0); fill-opacity: 0; stroke: rgb(0, 0, 0); stroke-opacity: 0;"/><path class="point" transform="translate(205.29,261.16)" d="M3,3H-3V-3H3Z" style="opacity: 1; stroke-width: 1px; fill: rgb(255, 0, 0); fill-opacity: 0; stroke: rgb(0, 0, 0); stroke-opacity: 0;"/><path class="point" transform="translate(223.97,264.32)" d="M3,3H-3V-3H3Z" style="opacity: 1; stroke-width: 1px; fill: rgb(255, 0, 0); fill-opacity: 0; stroke: rgb(0, 0, 0); stroke-opacity: 0;"/><path class="point" transform="translate(242.64,232.56)" d="M3,3H-3V-3H3Z" style="opacity: 1; stroke-width: 1px; fill: rgb(255, 0, 0); fill-opacity: 0; stroke: rgb(0, 0, 0); stroke-opacity: 0;"/><path class="point" transform="translate(261.31,244.21)" d="M3,3H-3V-3H3Z" style="opacity: 1; stroke-width: 1px; fill: rgb(255, 0, 0); fill-opacity: 0; stroke: rgb(0, 0, 0); stroke-opacity: 0;"/><path class="point" transform="translate(279.98,238.09)" d="M3,3H-3V-3H3Z" style="opacity: 1; stroke-width: 1px; fill: rgb(255, 0, 0); fill-opacity: 0; stroke: rgb(0, 0, 0); stroke-opacity: 0;"/><path class="point" transform="translate(298.65,230.29)" d="M3,3H-3V-3H3Z" style="opacity: 1; stroke-width: 1px; fill: rgb(255, 0, 0); fill-opacity: 0; stroke: rgb(0, 0, 0); stroke-opacity: 0;"/><path class="point" transform="translate(317.33,205.26)" d="M3,3H-3V-3H3Z" style="opacity: 1; stroke-width: 1px; fill: rgb(255, 0, 0); fill-opacity: 0; stroke: rgb(0, 0, 0); stroke-opacity: 0;"/><path class="point" transform="translate(336,224.51)" d="M3,3H-3V-3H3Z" style="opacity: 1; stroke-width: 1px; fill: rgb(255, 0, 0); fill-opacity: 0; stroke: rgb(0, 0, 0); stroke-opacity: 0;"/><path class="point" transform="translate(354.67,74.48)" d="M3,3H-3V-3H3Z" style="opacity: 1; stroke-width: 1px; fill: rgb(255, 0, 0); fill-opacity: 0; stroke: rgb(0, 0, 0); stroke-opacity: 0;"/><path class="point" transform="translate(373.34,97.87)" d="M3,3H-3V-3H3Z" style="opacity: 1; stroke-width: 1px; fill: rgb(255, 0, 0); fill-opacity: 0; stroke: rgb(0, 0, 0); stroke-opacity: 0;"/><path class="point" transform="translate(392.02,99.27)" d="M3,3H-3V-3H3Z" style="opacity: 1; stroke-width: 1px; fill: rgb(255, 0, 0); fill-opacity: 0; stroke: rgb(0, 0, 0); stroke-opacity: 0;"/><path class="point" transform="translate(410.69,90.32)" d="M3,3H-3V-3H3Z" style="opacity: 1; stroke-width: 1px; fill: rgb(255, 0, 0); fill-opacity: 0; stroke: rgb(0, 0, 0); stroke-opacity: 0;"/><path class="point" transform="translate(429.36,77.29)" d="M3,3H-3V-3H3Z" style="opacity: 1; stroke-width: 1px; fill: rgb(255, 0, 0); fill-opacity: 0; stroke: rgb(0, 0, 0); stroke-opacity: 0;"/><path class="point" transform="translate(448.03,0)" d="M3,3H-3V-3H3Z" style="opacity: 1; stroke-width: 1px; fill: rgb(255, 0, 0); fill-opacity: 0; stroke: rgb(0, 0, 0); stroke-opacity: 0;"/><path class="point" transform="translate(466.71,71.69)" d="M3,3H-3V-3H3Z" style="opacity: 1; stroke-width: 1px; fill: rgb(255, 0, 0); fill-opacity: 0; stroke: rgb(0, 0, 0); stroke-opacity: 0;"/><path class="point" transform="translate(485.38,54.27)" d="M3,3H-3V-3H3Z" style="opacity: 1; stroke-width: 1px; fill: rgb(255, 0, 0); fill-opacity: 0; stroke: rgb(0, 0, 0); stroke-opacity: 0;"/><path class="point" transform="translate(504.05,28.45)" d="M3,3H-3V-3H3Z" style="opacity: 1; stroke-width: 1px; fill: rgb(255, 0, 0); fill-opacity: 0; stroke: rgb(0, 0, 0); stroke-opacity: 0;"/></g><g class="text"/></g></g></g><g class="overplot"/><path class="xlines-above crisp" d="M103.77034120734908,420.9322506561679H646.0629921259842" style="fill: none; stroke-width: 1px; stroke: rgb(0, 0, 0); stroke-opacity: 1;"/><path class="ylines-above crisp" d="M104.27034120734908,82.79691601049865V420.4322506561679" style="fill: none; stroke-width: 1px; stroke: rgb(0, 0, 0); stroke-opacity: 1;"/><g class="overlines-above"/><g class="xaxislayer-above"><path class="xtick ticks crisp" d="M0,420.4322506561679v-5" transform="translate(198.03034120734907,0)" style="stroke: rgb(0, 0, 0); stroke-opacity: 1; stroke-width: 1px;"/><path class="xtick ticks crisp" d="M0,420.4322506561679v-5" transform="translate(291.3903412073491,0)" style="stroke: rgb(0, 0, 0); stroke-opacity: 1; stroke-width: 1px;"/><path class="xtick ticks crisp" d="M0,420.4322506561679v-5" transform="translate(384.7503412073491,0)" style="stroke: rgb(0, 0, 0); stroke-opacity: 1; stroke-width: 1px;"/><path class="xtick ticks crisp" d="M0,420.4322506561679v-5" transform="translate(478.11034120734905,0)" style="stroke: rgb(0, 0, 0); stroke-opacity: 1; stroke-width: 1px;"/><path class="xtick ticks crisp" d="M0,420.4322506561679v-5" transform="translate(571.480341207349,0)" style="stroke: rgb(0, 0, 0); stroke-opacity: 1; stroke-width: 1px;"/><g class="xtick"><text text-anchor="middle" x="0" y="434.6322506561679" transform="translate(198.03034120734907,0)" style="font-family: sans-serif; font-size: 11px; fill: rgb(0, 0, 0); fill-opacity: 1; white-space: pre; opacity: 1;">5</text></g><g class="xtick"><text text-anchor="middle" x="0" y="434.6322506561679" style="font-family: sans-serif; font-size: 11px; fill: rgb(0, 0, 0); fill-opacity: 1; white-space: pre; opacity: 1;" transform="translate(291.3903412073491,0)">10</text></g><g class="xtick"><text text-anchor="middle" x="0" y="434.6322506561679" style="font-family: sans-serif; font-size: 11px; fill: rgb(0, 0, 0); fill-opacity: 1; white-space: pre; opacity: 1;" transform="translate(384.7503412073491,0)">15</text></g><g class="xtick"><text text-anchor="middle" x="0" y="434.6322506561679" style="font-family: sans-serif; font-size: 11px; fill: rgb(0, 0, 0); fill-opacity: 1; white-space: pre; opacity: 1;" transform="translate(478.11034120734905,0)">20</text></g><g class="xtick"><text text-anchor="middle" x="0" y="434.6322506561679" style="font-family: sans-serif; font-size: 11px; fill: rgb(0, 0, 0); fill-opacity: 1; white-space: pre; opacity: 1;" transform="translate(571.480341207349,0)">25</text></g></g><g class="yaxislayer-above"><path class="ytick ticks crisp" d="M104.77034120734908,0h5" transform="translate(0,351.79691601049865)" style="stroke: rgb(0, 0, 0); stroke-opacity: 1; stroke-width: 1px;"/><path class="ytick ticks crisp" d="M104.77034120734908,0h5" transform="translate(0,283.15691601049866)" style="stroke: rgb(0, 0, 0); stroke-opacity: 1; stroke-width: 1px;"/><path class="ytick ticks crisp" d="M104.77034120734908,0h5" transform="translate(0,214.52691601049864)" style="stroke: rgb(0, 0, 0); stroke-opacity: 1; stroke-width: 1px;"/><path class="ytick ticks crisp" d="M104.77034120734908,0h5" transform="translate(0,145.88691601049865)" style="stroke: rgb(0, 0, 0); stroke-opacity: 1; stroke-width: 1px;"/><g class="ytick"><text text-anchor="end" x="101.57034120734907" y="3.8499999999999996" transform="translate(0,420.43691601049863)" style="font-family: sans-serif; font-size: 11px; fill: rgb(0, 0, 0); fill-opacity: 1; white-space: pre; opacity: 1;">0.00</text></g><g class="ytick"><text text-anchor="end" x="101.57034120734907" y="3.8499999999999996" style="font-family: sans-serif; font-size: 11px; fill: rgb(0, 0, 0); fill-opacity: 1; white-space: pre; opacity: 1;" transform="translate(0,351.79691601049865)">0.25</text></g><g class="ytick"><text text-anchor="end" x="101.57034120734907" y="3.8499999999999996" style="font-family: sans-serif; font-size: 11px; fill: rgb(0, 0, 0); fill-opacity: 1; white-space: pre; opacity: 1;" transform="translate(0,283.15691601049866)">0.50</text></g><g class="ytick"><text text-anchor="end" x="101.57034120734907" y="3.8499999999999996" style="font-family: sans-serif; font-size: 11px; fill: rgb(0, 0, 0); fill-opacity: 1; white-space: pre; opacity: 1;" transform="translate(0,214.52691601049864)">0.75</text></g><g class="ytick"><text text-anchor="end" x="101.57034120734907" y="3.8499999999999996" style="font-family: sans-serif; font-size: 11px; fill: rgb(0, 0, 0); fill-opacity: 1; white-space: pre; opacity: 1;" transform="translate(0,145.88691601049865)">1.00</text></g></g><g class="overaxes-above"/></g></g><g class="polarlayer"/><g class="ternarylayer"/><g class="geolayer"/><g class="funnelarealayer"/><g class="pielayer"/><g class="iciclelayer"/><g class="treemaplayer"/><g class="sunburstlayer"/><g class="glimages"/><defs id="topdefs-ae70d4"><g class="clips"/></defs><g class="layer-above"><g class="imagelayer"/><g class="shapelayer"/></g><g class="infolayer"><g class="g-gtitle"/><g class="g-xtitle"><text class="xtitle" x="375.4166666666667" y="462.140625" text-anchor="middle" style="font-family: sans-serif; font-size: 15px; fill: rgb(0, 0, 0); opacity: 1; font-weight: normal; white-space: pre;">log2(n)</text></g><g class="g-ytitle"><text class="ytitle" transform="rotate(-90,54.65625,251.6145833333333)" x="54.65625" y="251.6145833333333" text-anchor="middle" style="font-family: sans-serif; font-size: 15px; fill: rgb(0, 0, 0); opacity: 1; font-weight: normal; white-space: pre;">Relative Time (FFTW / CatabraFFT)</text></g><g class="annotation" data-index="0" style="opacity: 1;"><g class="annotation-text-g" transform="rotate(0,375.41666666666663,73.00000000000003)"><g class="cursor-pointer" transform="translate(-9,60)"><rect class="bg" x="0.5" y="0.5" width="767" height="25" style="stroke-width: 1px; stroke: rgb(0, 0, 0); stroke-opacity: 0; fill: rgb(0, 0, 0); fill-opacity: 0;"/><text class="annotation-text" text-anchor="middle" x="384" y="20" style="font-family: sans-serif; font-size: 20px; fill: rgb(0, 0, 0); fill-opacity: 1; white-space: pre;">ComplexF32 FFT Speedup (13th Gen Intel(R) Core(TM) i7-1355U@1545 Julia 1.11.2)</text></g></g></g></g></svg>